{
  "accessors": [
    {
      "bufferView": 2,
      "componentType": 5126,
      "count": 30992,
      "max": [
        3.7307751178741455,
        3.7513070106506348,
        7.553760051727295
      ],
      "min": [
        -3.7307751178741455,
        -3.751307964324951,
        0.015368999913334846
      ],
      "type": "VEC3"
    },
    {
      "bufferView": 2,
      "byteOffset": 371904,
      "componentType": 5126,
      "count": 30992,
      "max": [
        0.9999916553497314,
        1.0,
        0.9999982714653015
      ],
      "min": [
        -0.9999918341636658,
        -1.0,
        -0.9999983310699463
      ],
      "type": "VEC3"
    },
    {
      "bufferView": 1,
      "componentType": 5126,
      "count": 30992,
      "max": [
        1.2945400476455688,
        0.9571560025215149
      ],
      "min": [
        0.03347000107169151,
        0.0506570003926754
      ],
      "type": "VEC2"
    },
    {
      "bufferView": 0,
      "componentType": 5125,
      "count": 67392,
      "type": "SCALAR"
    }
  ],
  "asset": {
    "extras": {
      "author": "pattonv15 (https://sketchfab.com/pattonv15)",
      "license": "CC-BY-4.0 (http://creativecommons.org/licenses/by/4.0/)",
      "source": "https://sketchfab.com/3d-models/type-of-sphere-be64accf0ad6462c8d5ae510506a2dd9",
      "title": "Type of Sphere"
    },
    "generator": "Sketchfab-12.65.0",
    "version": "2.0"
  },
  "bufferViews": [
    {
      "buffer": 0,
      "byteLength": 269568,
      "name": "floatBufferViews",
      "target": 34963
    },
    {
      "buffer": 0,
      "byteLength": 247936,
      "byteOffset": 269568,
      "byteStride": 8,
      "name": "floatBufferViews",
      "target": 34962
    },
    {
      "buffer": 0,
      "byteLength": 743808,
      "byteOffset": 517504,
      "byteStride": 12,
      "name": "floatBufferViews",
      "target": 34962
    }
  ],
  "buffers": [
    {
      "byteLength": 1261312,
      "uri": "scene.bin"
    }
  ],
  "materials": [
    {
      "doubleSided": true,
      "name": "None",
      "pbrMetallicRoughness": {
        "metallicFactor": 0.0,
        "roughnessFactor": 0.6
      }
    }
  ],
  "meshes": [
    {
      "name": "Object_0",
      "primitives": [
        {
          "attributes": {
            "NORMAL": 1,
            "POSITION": 0,
            "TEXCOORD_0": 2
          },
          "indices": 3,
          "material": 0,
          "mode": 4
        }
      ]
    }
  ],
  "nodes": [
    {
      "children": [
        1
      ],
      "matrix": [
        1.0,
        0.0,
        0.0,
        0.0,
        0.0,
        2.220446049250313e-16,
        -1.0,
        0.0,
        0.0,
        1.0,
        2.220446049250313e-16,
        0.0,
        0.0,
        0.0,
        0.0,
        1.0
      ],
      "name": "Sketchfab_model"
    },
    {
      "children": [
        2
      ],
      "name": "ball.obj.cleaner.materialmerger.gles"
    },
    {
      "mesh": 0,
      "name": "Object_2"
    }
  ],
  "scene": 0,
  "scenes": [
    {
      "name": "Sketchfab_Scene",
      "nodes": [
        0
      ]
    }
  ]
}
