<svg width="708" height="761" viewBox="0 0 708 761" fill="none" xmlns="http://www.w3.org/2000/svg">
<g filter="url(#filter0_df_2821_24)">
<path d="M477.406 292.86C480.947 290.541 484.563 289.364 487.929 289.615C494.074 290.066 498.413 295.241 499.817 303.781L515.04 396.355C517.136 409.028 512.217 426.621 503.142 439.137C497.987 446.233 492.051 450.808 486.4 452.017L416.356 467.099C411.579 468.133 407.496 466.728 404.616 463.054C397.822 454.433 399.051 435.43 407.484 418.857L462.305 311.201C466.56 302.853 471.93 296.448 477.434 292.842L477.406 292.86ZM491.956 447.223C495.136 445.139 498.291 441.99 501.231 437.97C509.951 425.939 514.682 409.083 512.685 396.923L497.462 304.349C496.216 296.715 492.695 292.306 487.544 291.924C479.995 291.381 470.904 299.286 464.354 312.097L409.534 419.753C400.358 437.787 401.122 454.763 406.508 461.598C408.886 464.626 412.102 465.733 416.022 464.899L486.066 449.817C487.995 449.384 489.992 448.509 491.956 447.223Z" fill="url(#paint0_linear_2821_24)"/>
<path d="M473.655 282.788C477.001 280.596 480.413 279.408 483.718 279.445C490.285 279.513 495.06 284.329 497.188 293.009L520.654 388.995C526.093 411.177 511.011 445.357 493.344 450.971L417.441 475.09C412.204 476.751 407.612 475.714 404.162 472.017C396.224 463.64 396.272 443.497 404.237 425.244L456.691 305.165C461.17 294.865 467.31 286.98 473.699 282.795L473.655 282.788ZM497.528 446.497C511.717 437.203 522.907 408.425 518.337 389.682L494.871 293.696C493.013 286.031 488.966 281.785 483.506 281.715C475.077 281.64 465.182 291.335 458.84 305.852L406.386 425.931C397.667 445.868 399.635 463.717 405.939 470.384C408.815 473.447 412.489 474.289 416.83 472.89L492.733 448.771C494.337 448.263 495.946 447.461 497.495 446.447L497.528 446.497Z" fill="url(#paint1_linear_2821_24)"/>
<path d="M468.903 272.577C472 270.548 475.18 269.368 478.292 269.171C485.185 268.772 490.563 273.301 493.416 281.94L526.18 380.536C533.747 403.311 519.732 441.052 500.742 449.05L419.016 483.41C413.315 485.808 408.142 485.153 404.056 481.51C394.836 473.287 393.546 452.612 400.989 432.355L449.949 299.399C454.486 287.075 461.473 277.407 468.858 272.57L468.903 272.577ZM503.471 445.132C519.348 434.732 530.582 401.376 523.952 381.418L491.187 282.822C488.632 275.18 484.049 271.141 478.256 271.469C470.363 271.909 459.264 280.913 452.226 300.038L403.266 432.994C395.218 454.802 398.583 473.396 405.783 479.801C409.179 482.813 413.5 483.376 418.3 481.351L500.026 446.992C501.209 446.505 502.365 445.856 503.499 445.113L503.471 445.132Z" fill="url(#paint2_linear_2821_24)"/>
<path d="M462.841 262.357C465.717 260.473 468.692 259.282 471.617 258.919C478.864 258.036 484.884 262.217 488.538 270.692L531.736 370.975C541.701 394.092 529.086 435.539 508.848 446.159L421.487 492.009C415.287 495.276 409.44 495.099 404.657 491.479C394.232 483.649 391.489 462.083 398.077 440.22L442.24 294.086C446.652 279.461 454.36 267.876 462.824 262.332L462.841 262.357ZM509.908 443.01C527.637 431.396 538.618 393.006 529.563 372.002L486.364 271.718C483.102 264.143 477.916 260.39 471.752 261.178C462.907 262.278 451.06 273.035 444.533 294.57L400.371 440.703C393.25 464.288 398.062 483.523 406.213 489.63C410.266 492.68 415.207 492.801 420.501 490.02L507.861 444.17C508.53 443.804 509.227 443.419 509.864 443.003L509.908 443.01Z" fill="url(#paint3_linear_2821_24)"/>
<path d="M455.48 252.266C458.108 250.545 460.823 249.38 463.587 248.833C471.195 247.353 477.895 251.125 482.378 259.417L537.155 360.24C549.762 383.468 539.06 428.68 517.553 442.19L424.821 500.839C418.061 505.123 411.527 505.467 405.894 501.935C394.268 494.566 389.896 472.262 395.436 448.919L433.391 289.447C437.475 272.329 445.827 258.59 455.452 252.285L455.48 252.266ZM516.732 440.092C536.619 427.066 546.877 383.228 535.054 361.436L480.276 260.614C476.239 253.184 470.429 249.804 463.866 251.07C452.19 253.338 440.618 269.223 435.729 289.758L397.774 449.229C391.706 474.724 397.994 494.039 407.339 499.978C412.149 503.037 417.793 502.662 423.668 498.958L516.4 440.31C516.4 440.31 516.649 440.147 516.76 440.074L516.732 440.092Z" fill="url(#paint4_linear_2821_24)"/>
<path d="M446.671 242.439C449.022 240.899 451.45 239.778 453.916 239.137C461.922 236.998 469.308 240.248 474.715 248.261L542.261 348.302C557.82 371.33 549.23 420.25 526.73 437.01L429.011 509.83C421.813 515.195 414.261 516.278 407.821 512.842C394.774 505.898 388.738 483.529 393.119 458.416L423.265 285.574C426.716 265.8 435.69 249.631 446.643 242.457L446.671 242.439ZM426.231 509.087C426.729 508.761 427.227 508.435 427.719 508.04L525.439 435.22C546.689 419.387 555.017 371.397 540.314 349.614L472.768 249.573C467.824 242.267 461.488 239.413 454.422 241.297C441.472 244.761 429.638 263.02 425.691 285.717L395.546 458.56C390.819 485.559 398.826 505.265 409.183 510.758C414.453 513.553 420.312 512.964 426.287 509.051L426.231 509.087Z" fill="url(#paint5_linear_2821_24)"/>
<path d="M436.617 232.883C438.553 231.615 440.511 230.621 442.579 229.917C450.99 227.007 459.156 229.638 465.552 237.291L547.113 335.013C565.873 357.497 560.048 410.094 536.521 430.416L434.371 518.739C426.597 525.456 418.177 527.325 410.642 524.028C396.35 517.719 388.392 494.948 391.31 468.628L411.926 282.565C414.391 260.26 424.17 241.036 436.617 232.883ZM433.61 517.938L432.876 517.119L535.025 428.796C557.257 409.575 562.976 357.842 545.199 336.556L463.638 238.834C457.788 231.834 450.721 229.494 443.173 232.091C428.885 237.009 417.003 257.791 414.23 282.644L393.642 468.689C390.841 494.102 398.282 516.02 411.744 521.97C418.467 524.932 425.754 523.264 432.848 517.137L433.582 517.956L433.61 517.938Z" fill="url(#paint6_linear_2821_24)"/>
<path d="M424.744 224.051C426.238 223.073 427.759 222.257 429.335 221.586C438.211 217.757 447.191 219.639 454.644 226.853L551.432 320.486C573.68 342.02 571.106 398.193 546.778 422.361L440.866 527.628C432.532 535.904 423.126 538.743 414.397 535.614C398.811 530.044 388.797 507.032 390.063 479.699L399.204 280.824C400.368 255.689 410.627 233.334 424.761 224.076L424.744 224.051ZM440.032 526.838L439.215 526.074L545.128 420.806C568.199 397.858 570.767 342.52 549.683 322.101L452.895 228.468C446.027 221.845 438.153 220.143 430.134 223.59C414.533 230.306 402.775 253.751 401.548 280.661L392.407 479.536C391.186 505.973 400.638 528.126 415.356 533.398C423.262 536.235 431.512 533.683 439.199 526.048L440.016 526.813L440.032 526.838Z" fill="url(#paint7_linear_2821_24)"/>
<path d="M411.202 215.988C412.115 215.39 413.061 214.842 414.023 214.32C423.381 209.418 433.263 210.383 441.894 217.043L555.117 304.568C566.663 313.506 573.982 330.774 575.139 351.97C576.464 375.474 569.664 398.705 557.426 412.607L448.628 536.157C439.766 546.223 429.314 550.18 419.197 547.347C402.041 542.517 390.091 520.05 389.497 491.445L385.1 280.351C384.521 252.313 395.132 226.514 411.257 215.951L411.202 215.988ZM439.014 541.696C441.725 539.92 444.364 537.614 446.844 534.762L555.642 411.211C567.482 397.787 574.026 375.193 572.734 352.281C571.604 331.97 564.412 314.836 553.501 306.385L440.278 218.859C432.282 212.687 423.555 211.795 414.994 216.284C398.135 225.125 386.788 251.369 387.394 280.112L391.791 491.206C392.365 518.452 403.928 540.631 419.968 545.145C426.323 546.94 432.857 545.693 438.998 541.671L439.014 541.696Z" fill="url(#paint8_linear_2821_24)"/>
<path d="M395.923 208.953C396.116 208.826 396.31 208.7 396.503 208.573C406.355 202.372 417.228 202.255 427.158 208.244L557.99 287.412C570.826 295.18 579.981 311.751 583.144 332.933C586.932 358.327 581.278 384.453 568.39 401.164L457.732 544.384C448.403 556.452 436.795 561.781 425.08 559.344C406.53 555.464 392.303 533.261 389.653 504.053L369.495 281.69C366.697 250.808 377.535 221.07 395.928 209.022L395.923 208.953ZM456.821 543.717L455.898 543.093L566.556 399.874C579.079 383.691 584.538 358.233 580.811 333.414C577.741 312.857 568.917 296.792 556.617 289.359L425.785 210.19C416.556 204.609 406.844 204.688 397.684 210.435C379.701 221.782 369.085 250.833 371.844 281.234L392.002 503.597C394.565 531.887 408.124 553.372 425.757 557.059C436.483 559.313 447.173 554.333 455.854 543.086L456.777 543.71L456.821 543.717Z" fill="url(#paint9_linear_2821_24)"/>
<path d="M378.722 203.213C388.597 196.745 399.724 195.811 410.32 200.642L559.942 268.91C574.144 275.386 585.273 291.169 590.476 312.206C597.147 339.106 593.01 368.03 579.659 387.716L468.379 551.889C458.649 566.242 445.84 573.116 432.322 571.246C412.051 568.42 395.75 547.215 390.807 517.161L352.466 284.72C347.101 252.271 357.03 219.336 376.626 204.659C377.312 204.137 378.014 203.641 378.734 203.17L378.722 203.213ZM453.39 564.126C458.147 561.01 462.536 556.546 466.429 550.783L577.709 386.61C590.667 367.47 594.671 339.247 588.148 312.937C583.094 292.488 572.368 277.2 558.756 271.023L409.134 202.754C398.478 197.891 387.698 199.175 377.934 206.474C359.068 220.637 349.527 252.596 354.755 284.232L393.096 516.673C397.842 545.339 413.795 566.375 432.8 569.02C439.979 570.022 446.956 568.304 453.318 564.137L453.39 564.126Z" fill="url(#paint10_linear_2821_24)"/>
<path d="M359.581 199.033C369.289 192.674 380.335 191.071 391.263 194.601L560.746 249.138C576.42 254.18 589.645 269.06 597.004 289.949C606.709 317.497 604.38 349.786 591.087 372.214L480.652 558.617C470.798 575.254 456.333 584.188 440.985 583.084C419.215 581.529 400.398 561.069 393.034 530.94L334.015 289.981C325.865 256.721 334.205 220.999 354.259 203.097C356.013 201.551 357.794 200.167 359.62 198.972L359.581 199.033ZM479.624 558.135L478.624 557.634L589.059 371.231C602.004 349.356 604.26 317.801 594.775 290.831C587.626 270.563 574.903 256.149 559.87 251.301L390.387 196.763C378.072 192.806 366.085 195.567 355.788 204.768C336.371 222.072 328.363 256.854 336.32 289.338L395.34 530.296C402.5 559.511 420.572 579.376 441.347 580.861C455.905 581.905 469.131 573.674 478.597 557.652L479.597 558.153L479.624 558.135Z" fill="url(#paint11_linear_2821_24)"/>
<path d="M338.503 196.664C347.99 190.449 358.798 188.244 369.883 190.443L560.191 228.198C577.543 231.636 592.985 245.496 602.616 266.232C615.68 294.324 615.61 329.034 602.462 354.581L494.579 564.371C484.595 583.765 468.773 594.851 451.179 594.785C427.882 594.7 406.427 575.281 396.443 545.316L314.035 297.797C302.851 264.249 309.105 225.886 329.207 204.558C332.118 201.46 335.228 198.845 338.519 196.689L338.503 196.664ZM492.485 563.467L600.368 353.677C613.2 328.734 613.231 294.809 600.459 267.284C591.109 247.158 576.197 233.745 559.553 230.421L369.245 192.667C355.22 189.902 341.612 194.591 330.891 205.983C311.382 226.706 305.355 264.089 316.291 296.897L398.7 544.416C408.38 573.496 429.079 592.363 451.387 592.446C467.991 592.511 482.966 581.943 492.469 563.442L492.485 563.467Z" fill="url(#paint12_linear_2821_24)"/>
<path d="M315.472 196.441C324.654 190.426 335.088 187.708 346.069 188.603L558.08 206.147C577.263 207.736 595.234 220.446 607.296 241.033C623.86 269.216 626.362 305.923 613.708 334.577L510.316 568.723C500.438 591.116 483.243 604.691 463.122 605.955C437.866 607.587 414.153 589.972 401.246 560.008L292.654 308.3C278.043 274.469 281.613 234.723 301.516 209.41C305.679 204.119 310.366 199.749 315.483 196.397L315.472 196.441ZM485.492 596.177C494.813 590.071 502.663 580.452 508.15 568.011L611.553 333.822C623.925 305.823 621.427 269.907 605.227 242.28C593.49 222.31 576.172 209.931 557.679 208.432L345.668 190.887C329.459 189.554 314.421 196.587 303.321 210.719C283.934 235.37 280.536 274.172 294.816 307.317L403.408 559.025C415.957 588.14 438.874 605.265 463.147 603.7C471.151 603.188 478.699 600.59 485.475 596.152L485.492 596.177Z" fill="url(#paint13_linear_2821_24)"/>
<path d="M290.502 198.57C299.242 192.845 309.19 189.687 319.786 189.39L554.157 183.08C575.482 182.508 596.156 193.916 610.96 214.404C631.029 242.205 636.398 280.573 624.63 312.149L527.966 571.532C518.428 597.098 499.858 613.522 477.026 616.562C450.093 620.159 423.488 604.223 407.6 575.019L269.892 321.946C251.958 288.956 252.458 247.358 271.17 218.419C276.548 210.094 283.089 203.426 290.474 198.588L290.502 198.57ZM526.85 571.216L525.734 570.9L622.414 311.542C633.944 280.628 628.668 243.066 608.963 215.821C594.584 195.92 574.561 184.844 554.005 185.383L319.634 191.692C300.951 192.195 284.423 202.083 273.148 219.506C254.873 247.726 254.419 288.428 271.994 320.75L409.702 573.823C425.165 602.257 450.892 617.758 476.891 614.304C498.744 611.4 516.534 595.594 525.751 570.925L526.867 571.241L526.85 571.216Z" fill="url(#paint14_linear_2821_24)"/>
<path d="M263.599 203.482C271.759 198.137 280.999 194.684 290.933 193.377L548.194 159.255C571.877 156.127 595.687 165.986 613.51 186.376C637.089 213.321 645.524 252.93 635.018 287.218L547.559 572.418C538.707 601.326 518.834 620.951 493.081 626.229C464.41 632.12 434.767 618.245 415.717 590.067L245.915 338.988C224.244 306.929 221.283 264.997 238.392 232.162C244.781 219.889 253.382 210.211 263.644 203.489L263.599 203.482ZM546.404 572.164L545.266 571.935L632.753 286.716C643.036 253.115 634.783 214.326 611.667 187.907C594.325 168.07 571.233 158.462 548.341 161.47L291.08 195.591C269.514 198.452 251.567 211.724 240.481 232.996C223.765 265.105 226.671 306.17 247.929 337.596L417.73 588.676C436.301 616.121 465.043 629.647 492.786 623.968C517.593 618.875 536.747 599.902 545.321 571.898L546.459 572.128L546.404 572.164Z" fill="url(#paint15_linear_2821_24)"/>
<path d="M235.229 211.341C242.614 206.504 250.799 202.948 259.524 200.88L539.934 134.696C566.296 128.477 593.585 136.527 614.862 156.82C642.245 182.935 653.66 222.326 644.615 259.628L569.156 571.054C561.439 602.901 539.859 626.677 511.483 634.649C480.53 643.334 448.447 632.249 425.658 605.003L220.724 359.786C195.617 329.725 188.761 287.095 203.271 251.196C210.157 234.192 221.289 220.473 235.202 211.36L235.229 211.341ZM568.023 570.893L566.874 570.707L642.305 259.3C651.161 222.735 639.983 184.128 613.119 158.504C592.394 138.752 565.862 130.892 540.313 136.904L259.902 203.087C235.525 208.837 215.666 226.612 205.475 251.846C191.243 287.022 197.973 328.795 222.61 358.261L427.545 603.478C449.743 630.064 480.948 640.894 510.988 632.446C538.468 624.736 559.346 601.636 566.857 570.682L568.007 570.868L568.023 570.893Z" fill="url(#paint16_linear_2821_24)"/>
<path d="M205.098 222.486C211.404 218.355 218.267 215.014 225.578 212.537L529.088 109.81C558.4 99.8889 589.661 105.735 614.835 125.822C645.509 150.323 660.206 190.018 653.176 229.431L592.818 567.109C586.545 602.307 564.004 630.108 532.567 641.492C499.687 653.389 464.228 645.238 437.746 619.653L194.593 384.702C165.621 356.704 154.784 315.057 166.279 276.005C172.996 253.19 186.704 234.534 205.098 222.486ZM590.475 566.911L650.833 229.233C657.735 190.59 643.329 151.642 613.246 127.621C588.663 108.013 558.226 102.278 529.693 111.941L226.183 214.668C198.358 224.084 177.348 246.62 168.556 276.463C157.26 314.734 167.916 355.561 196.336 383.018L439.489 617.97C465.342 642.956 499.872 650.957 531.89 639.372C562.464 628.3 584.363 601.209 590.475 566.911Z" fill="url(#paint17_linear_2821_24)"/>
<path d="M173.618 237.184C178.486 233.996 183.647 231.193 189.1 228.777L515.345 84.7264C547.913 70.362 583.582 73.4643 613.228 93.2582C647.022 115.824 665.069 155.383 660.342 196.501L618.54 560.154C614.137 598.569 590.965 630.718 556.566 646.209C521.631 661.908 482.564 657.239 452.066 633.671L167.639 414.093C135.252 389.089 119.954 348.054 127.699 307.017C133.263 277.556 149.693 252.856 173.618 237.184ZM569.954 636.356C595.594 619.561 612.487 592.067 616.18 560.112L658.026 196.466C662.669 156.125 644.958 117.32 611.811 95.1977C582.811 75.8471 547.96 72.7867 516.194 86.8064L189.948 230.857C158.436 244.782 136.596 272.628 130.031 307.259C122.398 347.5 137.415 387.745 169.211 412.269L453.638 631.846C483.468 654.878 521.612 659.465 555.718 644.129C560.717 641.865 565.485 639.248 569.966 636.313L569.954 636.356Z" fill="url(#paint18_linear_2821_24)"/>
<path d="M141.697 255.313C144.436 253.519 147.268 251.809 150.155 250.242L498.451 59.9013C533.994 40.4833 575.653 40.2395 609.904 59.2194C647.127 79.8997 668.078 117.918 665.902 160.94L646.322 549.828C644.231 591.169 620.888 627.943 583.841 648.203C546.794 668.462 503.809 667.949 468.864 646.824L140.148 448.277C103.783 426.312 84.2814 387.489 87.9829 344.443C91.0957 308.102 110.968 275.442 141.725 255.295L141.697 255.313ZM591.201 641.215C622.566 620.67 642.069 587.205 643.973 549.922L663.509 161.027C665.617 118.808 645.086 81.4897 608.564 61.2166C575.026 42.6004 534.239 42.8498 499.449 61.8474L151.153 252.189C116.379 271.211 93.597 305.705 90.2822 344.453C86.6315 386.672 105.769 424.759 141.477 446.323L470.193 644.87C504.419 665.563 546.531 666.07 582.798 646.249C585.686 644.683 588.49 642.991 591.201 641.215Z" fill="url(#paint19_linear_2821_24)"/>
<path d="M108.942 277.418L478.079 35.6206C517.3 9.92982 564.558 5.44085 604.493 23.6229C644.427 41.8049 668.69 78.8457 669.404 122.718L676.098 535.667C676.812 579.539 653.844 621.051 614.624 646.742C575.403 672.433 528.145 676.922 488.21 658.74L112.351 487.607C72.4169 469.425 48.1539 432.384 47.4401 388.511C46.7263 344.639 69.7218 303.109 108.942 277.418ZM673.76 535.899L667.021 122.943C666.328 79.8871 642.512 43.5284 603.318 25.692C564.124 7.8556 517.761 12.2635 479.288 37.4651L110.15 279.263C71.6768 304.464 49.1134 345.205 49.8061 388.262C50.4988 431.318 74.315 467.676 113.509 485.513L489.368 656.645C528.535 674.5 574.914 670.117 613.415 644.897C651.889 619.696 674.452 578.955 673.76 535.899Z" fill="url(#paint20_linear_2821_24)"/>
</g>
<defs>
<filter id="filter0_df_2821_24" x="-10" y="-46" width="927.837" height="894.807" filterUnits="userSpaceOnUse" color-interpolation-filters="sRGB">
<feFlood flood-opacity="0" result="BackgroundImageFix"/>
<feColorMatrix in="SourceAlpha" type="matrix" values="0 0 0 0 0 0 0 0 0 0 0 0 0 0 0 0 0 0 127 0" result="hardAlpha"/>
<feOffset dy="4"/>
<feGaussianBlur stdDeviation="2"/>
<feComposite in2="hardAlpha" operator="out"/>
<feColorMatrix type="matrix" values="0 0 0 0 0 0 0 0 0 0 0 0 0 0 0 0 0 0 0.25 0"/>
<feBlend mode="normal" in2="BackgroundImageFix" result="effect1_dropShadow_2821_24"/>
<feBlend mode="normal" in="SourceGraphic" in2="effect1_dropShadow_2821_24" result="shape"/>
<feGaussianBlur stdDeviation="5" result="effect2_foregroundBlur_2821_24"/>
</filter>
<linearGradient id="paint0_linear_2821_24" x1="528.074" y1="342.936" x2="386.57" y2="435.626" gradientUnits="userSpaceOnUse">
<stop stop-color="#264E8A"/>
<stop offset="0.95" stop-color="#E9E9E9"/>
<stop offset="1" stop-color="#E9E9E9"/>
</linearGradient>
<linearGradient id="paint1_linear_2821_24" x1="528.4" y1="337.883" x2="379.733" y2="435.265" gradientUnits="userSpaceOnUse">
<stop stop-color="#264E8A"/>
<stop offset="0.95" stop-color="#E9E9E9"/>
<stop offset="1" stop-color="#E9E9E9"/>
</linearGradient>
<linearGradient id="paint2_linear_2821_24" x1="527.914" y1="332.857" x2="372.637" y2="434.57" gradientUnits="userSpaceOnUse">
<stop stop-color="#264E8A"/>
<stop offset="0.95" stop-color="#E9E9E9"/>
<stop offset="1" stop-color="#E9E9E9"/>
</linearGradient>
<linearGradient id="paint3_linear_2821_24" x1="526.462" y1="327.743" x2="365.265" y2="433.332" gradientUnits="userSpaceOnUse">
<stop stop-color="#264E8A"/>
<stop offset="0.95" stop-color="#E9E9E9"/>
<stop offset="1" stop-color="#E9E9E9"/>
</linearGradient>
<linearGradient id="paint4_linear_2821_24" x1="523.953" y1="322.706" x2="357.722" y2="431.593" gradientUnits="userSpaceOnUse">
<stop stop-color="#264E8A"/>
<stop offset="0.95" stop-color="#E9E9E9"/>
<stop offset="1" stop-color="#E9E9E9"/>
</linearGradient>
<linearGradient id="paint5_linear_2821_24" x1="523.73" y1="319.892" x2="351.94" y2="432.42" gradientUnits="userSpaceOnUse">
<stop stop-color="#264E8A"/>
<stop offset="0.95" stop-color="#E9E9E9"/>
<stop offset="1" stop-color="#E9E9E9"/>
</linearGradient>
<linearGradient id="paint6_linear_2821_24" x1="532.594" y1="312.424" x2="347.029" y2="433.975" gradientUnits="userSpaceOnUse">
<stop stop-color="#264E8A"/>
<stop offset="0.95" stop-color="#E9E9E9"/>
<stop offset="0.984375" stop-color="#E9E9E9"/>
</linearGradient>
<linearGradient id="paint7_linear_2821_24" x1="542.149" y1="304.685" x2="342.423" y2="435.512" gradientUnits="userSpaceOnUse">
<stop stop-color="#264E8A"/>
<stop offset="0.95" stop-color="#E9E9E9"/>
<stop offset="1" stop-color="#E9E9E9"/>
</linearGradient>
<linearGradient id="paint8_linear_2821_24" x1="552.49" y1="296.756" x2="338.105" y2="437.186" gradientUnits="userSpaceOnUse">
<stop stop-color="#264E8A"/>
<stop offset="0.95" stop-color="#E9E9E9"/>
<stop offset="1" stop-color="#E9E9E9"/>
</linearGradient>
<linearGradient id="paint9_linear_2821_24" x1="563.632" y1="288.663" x2="334.394" y2="438.822" gradientUnits="userSpaceOnUse">
<stop stop-color="#264E8A"/>
<stop offset="0.838542" stop-color="#E9E9E9"/>
<stop offset="0.95" stop-color="#E9E9E9"/>
</linearGradient>
<linearGradient id="paint10_linear_2821_24" x1="575.597" y1="280.501" x2="331.092" y2="440.66" gradientUnits="userSpaceOnUse">
<stop stop-color="#264E8A"/>
<stop offset="0.95" stop-color="#E9E9E9"/>
<stop offset="1" stop-color="#E9E9E9"/>
</linearGradient>
<linearGradient id="paint11_linear_2821_24" x1="588.453" y1="272.188" x2="328.486" y2="442.475" gradientUnits="userSpaceOnUse">
<stop stop-color="#264E8A"/>
<stop offset="0.95" stop-color="#E9E9E9"/>
<stop offset="1" stop-color="#E9E9E9"/>
</linearGradient>
<linearGradient id="paint12_linear_2821_24" x1="602.276" y1="263.964" x2="326.571" y2="444.56" gradientUnits="userSpaceOnUse">
<stop stop-color="#264E8A"/>
<stop offset="0.95" stop-color="#E9E9E9"/>
<stop offset="1" stop-color="#E9E9E9"/>
</linearGradient>
<linearGradient id="paint13_linear_2821_24" x1="617.089" y1="255.742" x2="325.314" y2="446.864" gradientUnits="userSpaceOnUse">
<stop stop-color="#264E8A"/>
<stop offset="0.95" stop-color="#E9E9E9"/>
<stop offset="1" stop-color="#E9E9E9"/>
</linearGradient>
<linearGradient id="paint14_linear_2821_24" x1="632.89" y1="247.702" x2="324.935" y2="449.423" gradientUnits="userSpaceOnUse">
<stop stop-color="#264E8A"/>
<stop offset="0.95" stop-color="#E9E9E9"/>
<stop offset="1" stop-color="#E9E9E9"/>
</linearGradient>
<linearGradient id="paint15_linear_2821_24" x1="649.713" y1="239.895" x2="321.705" y2="454.752" gradientUnits="userSpaceOnUse">
<stop stop-color="#264E8A"/>
<stop offset="0.963542" stop-color="#E9E9E9"/>
<stop offset="1" stop-color="#E9E9E9"/>
</linearGradient>
<linearGradient id="paint16_linear_2821_24" x1="667.609" y1="232.398" x2="295.927" y2="475.862" gradientUnits="userSpaceOnUse">
<stop stop-color="#264E8A"/>
<stop offset="0.95" stop-color="#E9E9E9"/>
<stop offset="1" stop-color="#E9E9E9"/>
</linearGradient>
<linearGradient id="paint17_linear_2821_24" x1="686.378" y1="225.448" x2="267.012" y2="500.147" gradientUnits="userSpaceOnUse">
<stop stop-color="#264E8A"/>
<stop offset="0.95" stop-color="#E9E9E9"/>
<stop offset="1" stop-color="#E9E9E9"/>
</linearGradient>
<linearGradient id="paint18_linear_2821_24" x1="705.958" y1="219.194" x2="234.953" y2="527.719" gradientUnits="userSpaceOnUse">
<stop stop-color="#264E8A"/>
<stop offset="0.95" stop-color="#E9E9E9"/>
<stop offset="1" stop-color="#E9E9E9"/>
</linearGradient>
<linearGradient id="paint19_linear_2821_24" x1="726.432" y1="213.763" x2="199.5" y2="558.921" gradientUnits="userSpaceOnUse">
<stop stop-color="#264E8A"/>
<stop offset="0.95" stop-color="#E9E9E9"/>
<stop offset="1" stop-color="#E9E9E9"/>
</linearGradient>
<linearGradient id="paint20_linear_2821_24" x1="747.28" y1="209.566" x2="160.854" y2="593.695" gradientUnits="userSpaceOnUse">
<stop stop-color="#264E8A"/>
<stop offset="0.95" stop-color="#E9E9E9"/>
<stop offset="1" stop-color="#E9E9E9"/>
</linearGradient>
</defs>
</svg>
