<svg width="1281" height="830" viewBox="0 0 1281 830" fill="none" xmlns="http://www.w3.org/2000/svg">
<g clip-path="url(#clip0_2821_151)">
<path d="M726.68 102.081C727.165 102.026 727.669 102.146 728.002 102.373L1080.15 346.134C1080.69 346.515 1080.75 347.081 1080.32 347.571L802.661 689.529C802.282 689.969 801.634 690.219 801.013 690.157L277.248 657.778C276.505 657.73 275.905 657.312 275.846 656.79L229.816 294.787C229.762 294.308 230.132 293.78 230.779 293.531L726.139 102.187C726.139 102.187 726.493 102.058 726.675 102.038L726.68 102.081ZM1076.91 347.296L726.425 104.714L233.244 295.237L279.077 655.497L800.434 687.751L1076.91 347.296Z" fill="url(#paint0_linear_2821_151)"/>
<path d="M745.985 93.0999C746.47 93.045 746.975 93.1643 747.373 93.4281L1097.12 354.406C1097.65 354.787 1097.66 355.404 1097.28 355.844L794.912 701.88C794.532 702.32 793.88 702.526 793.198 702.471L256.584 655.309C255.842 655.261 255.303 654.836 255.238 654.27L225.954 279.118C225.9 278.639 226.331 278.105 226.983 277.899L745.505 93.1983C745.505 93.1983 745.864 93.1136 745.985 93.0999ZM1093.81 355.531L745.67 95.739L229.331 279.663L258.479 653.064L792.796 700.001L1093.81 355.531Z" fill="url(#paint1_linear_2821_151)"/>
<path d="M766.3 84.3565C766.845 84.2947 767.35 84.414 767.687 84.6847L1114.17 363.462C1114.64 363.85 1114.71 364.46 1114.27 364.907L786.323 714.413C785.938 714.809 785.231 715.066 784.605 714.96L235.538 652.176C234.791 652.084 234.251 651.66 234.253 651.13L222.821 262.837C222.766 262.358 223.263 261.861 223.915 261.654L765.941 84.4413C765.941 84.4413 766.239 84.3633 766.36 84.3496L766.3 84.3565ZM1110.78 364.463L765.919 86.9589L226.086 263.482L237.503 650.012L784.263 712.484L1110.78 364.463Z" fill="url(#paint2_linear_2821_151)"/>
<path d="M787.619 75.8087C788.165 75.7469 788.73 75.8594 789.072 76.1736L1131.17 373.23C1131.65 373.617 1131.66 374.234 1131.16 374.688L776.835 727.137C776.451 727.533 775.738 727.746 775.112 727.641L213.994 648.438C213.247 648.346 212.763 647.872 212.765 647.342L220.351 245.908C220.357 245.422 220.793 244.931 221.445 244.725L787.255 75.8499C787.255 75.8499 787.498 75.8224 787.68 75.8018L787.619 75.8087ZM1127.78 374.144L787.178 78.4179L223.627 246.64L216.085 646.304L774.891 725.15L1127.78 374.144Z" fill="url(#paint3_linear_2821_151)"/>
<path d="M809.953 67.5431C810.498 67.4813 811.069 67.6375 811.411 67.9517L1148.21 383.744C1148.62 384.182 1148.63 384.756 1148.13 385.21L766.509 740.044C766.063 740.447 765.406 740.61 764.78 740.504L192.124 643.987C191.432 643.845 190.953 643.414 190.95 642.841L218.671 228.36C218.677 227.874 219.173 227.376 219.83 227.214L809.65 67.5775C809.65 67.5775 809.892 67.55 810.013 67.5363L809.953 67.5431ZM1144.81 384.615L809.451 70.1593L221.9 229.23L194.285 641.933L764.62 738.007L1144.81 384.615Z" fill="url(#paint4_linear_2821_151)"/>
<path d="M833.306 59.6032C833.912 59.5346 834.482 59.6906 834.83 60.0484L1165.21 395.057C1165.62 395.495 1165.57 396.075 1165.06 396.529L755.217 753.104C754.772 753.507 754.054 753.677 753.423 753.527L169.745 638.844C169.054 638.701 168.57 638.226 168.632 637.69L217.79 210.28C217.857 209.787 218.358 209.333 219.015 209.17L833.068 59.6743C833.068 59.6743 833.25 59.6537 833.371 59.64L833.306 59.6032ZM1161.73 395.847L832.743 62.2263L220.959 211.156L172.033 636.819L753.445 751.01L1161.73 395.847Z" fill="url(#paint5_linear_2821_151)"/>
<path d="M857.743 52.026C858.35 51.9573 858.925 52.1569 859.272 52.5147L1182.06 407.225C1182.47 407.663 1182.36 408.25 1181.85 408.704L742.956 766.274C742.505 766.634 741.788 766.803 741.157 766.654L147.096 632.936C146.404 632.794 145.976 632.269 146.038 631.732L217.81 191.48C217.877 190.987 218.378 190.533 219.1 190.407L857.501 52.0534C857.501 52.0534 857.683 52.0328 857.743 52.026ZM1178.57 407.884L857.05 54.5756L220.928 192.45L149.444 630.905L741.305 764.166L1178.57 407.884Z" fill="url(#paint6_linear_2821_151)"/>
<path d="M883.145 44.8254C883.751 44.7567 884.387 44.9495 884.673 45.3141L1198.81 420.198C1199.17 420.643 1199.06 421.273 1198.55 421.64L729.729 779.598C729.279 779.958 728.556 780.084 727.925 779.935L124.115 626.273C123.418 626.087 122.996 625.605 123.118 625.062L218.755 172.178C218.882 171.678 219.389 171.268 220.106 171.098L883.028 44.8827C883.028 44.8827 883.15 44.8689 883.21 44.8621L883.145 44.8254ZM1195.32 420.77L882.512 47.3681L221.873 173.149L126.59 624.272L728.189 777.389L1195.32 420.77Z" fill="url(#paint7_linear_2821_151)"/>
<path d="M909.696 38.0235C910.363 37.9479 910.999 38.1407 911.29 38.5489L1215.36 434.076C1215.72 434.521 1215.61 435.151 1215.04 435.525L715.467 792.994C714.956 793.361 714.233 793.487 713.658 793.287L100.854 618.758C100.157 618.572 99.7899 618.04 99.9126 617.496L220.722 152.143C220.85 151.643 221.417 151.226 222.078 151.106L909.575 38.0372C909.575 38.0372 909.635 38.0303 909.696 38.0235ZM1211.86 434.561L908.942 40.5799L223.795 153.251L103.46 616.83L714.049 790.772L1211.86 434.561Z" fill="url(#paint8_linear_2821_151)"/>
<path d="M937.226 31.7292C937.893 31.6537 938.534 31.8899 938.826 32.2982L1231.65 448.824C1232.01 449.312 1231.77 449.913 1231.26 450.28L700.104 806.428C699.588 806.751 698.866 806.877 698.29 806.677L77.2468 610.356C76.606 610.12 76.2437 609.631 76.3663 609.088L223.671 131.555C223.799 131.055 224.366 130.638 225.093 130.556L937.171 31.7795L937.226 31.7292ZM1228.13 449.222L936.412 34.2925L226.633 132.764L79.8675 608.559L698.807 804.192L1228.13 449.222Z" fill="url(#paint9_linear_2821_151)"/>
<path d="M229.265 109.388L965.921 25.964C966.588 25.8885 967.289 26.118 967.586 26.5697L1247.66 464.44C1247.96 464.935 1247.78 465.529 1247.21 465.903L683.705 819.934C683.189 820.257 682.461 820.34 681.886 820.14L53.4796 601.089C52.8389 600.853 52.4716 600.321 52.7155 599.764L227.833 110.3C228.021 109.794 228.593 109.42 229.321 109.338L229.265 109.388ZM964.975 28.4539L230.683 111.61L56.1659 599.329L682.524 817.641L1244.14 464.794L964.975 28.4539Z" fill="url(#paint10_linear_2821_151)"/>
</g>
<defs>
<linearGradient id="paint0_linear_2821_151" x1="1082.09" y1="360.102" x2="247.929" y2="454.568" gradientUnits="userSpaceOnUse">
<stop stop-color="#264E8A"/>
<stop offset="0.95" stop-color="#E9E9E9"/>
<stop offset="1" stop-color="#E9E9E9"/>
</linearGradient>
<linearGradient id="paint1_linear_2821_151" x1="1098.15" y1="360.626" x2="233.098" y2="458.59" gradientUnits="userSpaceOnUse">
<stop stop-color="#264E8A"/>
<stop offset="0.95" stop-color="#E9E9E9"/>
<stop offset="1" stop-color="#E9E9E9"/>
</linearGradient>
<linearGradient id="paint2_linear_2821_151" x1="1114.22" y1="361.353" x2="213.009" y2="463.412" gradientUnits="userSpaceOnUse">
<stop stop-color="#264E8A"/>
<stop offset="0.95" stop-color="#E9E9E9"/>
<stop offset="1" stop-color="#E9E9E9"/>
</linearGradient>
<linearGradient id="paint3_linear_2821_151" x1="1130.2" y1="362.285" x2="192.523" y2="468.473" gradientUnits="userSpaceOnUse">
<stop stop-color="#264E8A"/>
<stop offset="0.95" stop-color="#E9E9E9"/>
<stop offset="1" stop-color="#E9E9E9"/>
</linearGradient>
<linearGradient id="paint4_linear_2821_151" x1="1146.12" y1="363.466" x2="171.823" y2="473.802" gradientUnits="userSpaceOnUse">
<stop stop-color="#264E8A"/>
<stop offset="0.95" stop-color="#E9E9E9"/>
<stop offset="1" stop-color="#E9E9E9"/>
</linearGradient>
<linearGradient id="paint5_linear_2821_151" x1="1161.98" y1="364.908" x2="150.711" y2="479.431" gradientUnits="userSpaceOnUse">
<stop stop-color="#264E8A"/>
<stop offset="0.95" stop-color="#E9E9E9"/>
<stop offset="1" stop-color="#E9E9E9"/>
</linearGradient>
<linearGradient id="paint6_linear_2821_151" x1="1177.62" y1="366.602" x2="129.456" y2="485.303" gradientUnits="userSpaceOnUse">
<stop stop-color="#264E8A"/>
<stop offset="0.95" stop-color="#E9E9E9"/>
<stop offset="1" stop-color="#E9E9E9"/>
</linearGradient>
<linearGradient id="paint7_linear_2821_151" x1="1193.09" y1="368.587" x2="107.967" y2="491.474" gradientUnits="userSpaceOnUse">
<stop stop-color="#264E8A"/>
<stop offset="0.95" stop-color="#E9E9E9"/>
<stop offset="1" stop-color="#E9E9E9"/>
</linearGradient>
<linearGradient id="paint8_linear_2821_151" x1="1208.33" y1="370.851" x2="86.3424" y2="497.913" gradientUnits="userSpaceOnUse">
<stop stop-color="#264E8A"/>
<stop offset="0.95" stop-color="#E9E9E9"/>
<stop offset="1" stop-color="#E9E9E9"/>
</linearGradient>
<linearGradient id="paint9_linear_2821_151" x1="1223.2" y1="373.406" x2="64.5089" y2="504.624" gradientUnits="userSpaceOnUse">
<stop stop-color="#264E8A"/>
<stop offset="0.95" stop-color="#E9E9E9"/>
<stop offset="1" stop-color="#E9E9E9"/>
</linearGradient>
<linearGradient id="paint10_linear_2821_151" x1="1237.74" y1="376.292" x2="42.6413" y2="511.634" gradientUnits="userSpaceOnUse">
<stop stop-color="#264E8A"/>
<stop offset="0.95" stop-color="#E9E9E9"/>
<stop offset="1" stop-color="#E9E9E9"/>
</linearGradient>
<clipPath id="clip0_2821_151">
<rect width="1202.83" height="757.389" fill="white" transform="translate(1280.41 752.579) rotate(173.539)"/>
</clipPath>
</defs>
</svg>
