<svg width="941" height="847" viewBox="0 0 941 847" fill="none" xmlns="http://www.w3.org/2000/svg">
<g clip-path="url(#clip0_2822_237)">
<path d="M467.197 533.245L345.024 479.55L398.586 353.418L467.208 533.208L467.197 533.245ZM347.805 478.514L463.414 529.329L398.47 359.172L347.766 478.502L347.805 478.514Z" fill="url(#paint0_linear_2822_237)"/>
<path d="M468.201 537.631L340.288 476.726L401.163 347.707L468.201 537.631ZM343.135 475.75L464.512 533.54L400.926 353.303L343.146 475.713L343.135 475.75Z" fill="url(#paint1_linear_2822_237)"/>
<path d="M469.148 542.204L335.408 473.536L404.125 341.827L469.148 542.204ZM338.31 472.658L465.569 538.024L403.706 347.329L338.31 472.658Z" fill="url(#paint2_linear_2822_237)"/>
<path d="M470.019 547.036L330.326 470.042L407.462 335.814L470.019 547.036ZM333.283 469.261L466.522 542.719L406.862 341.222L333.283 469.261Z" fill="url(#paint3_linear_2822_237)"/>
<path d="M470.784 552.081L325.062 466.172L411.212 329.683L470.784 552.081ZM328.024 465.514L467.398 547.675L410.43 334.997L328.063 465.525L328.024 465.514Z" fill="url(#paint4_linear_2822_237)"/>
<path d="M471.433 557.374L319.567 461.949L415.363 323.468L471.471 557.386L471.433 557.374ZM322.546 461.377L468.118 552.868L414.373 328.638L322.546 461.377Z" fill="url(#paint5_linear_2822_237)"/>
<path d="M471.939 562.868L313.836 457.252L419.939 317.096L471.939 562.868ZM316.87 456.777L468.745 558.236L418.777 322.134L316.87 456.777Z" fill="url(#paint6_linear_2822_237)"/>
<path d="M472.318 568.647L307.924 452.176L424.994 310.663L472.28 568.636L472.318 568.647ZM311.013 451.798L469.274 563.938L423.739 315.593L311.013 451.798Z" fill="url(#paint7_linear_2822_237)"/>
<path d="M472.531 574.702L301.803 446.675L430.593 304.231L472.531 574.702ZM304.946 446.394L469.636 569.915L429.178 308.992L304.946 446.394Z" fill="url(#paint8_linear_2822_237)"/>
<path d="M472.592 580.994L295.507 440.635L436.771 297.686L472.592 580.994ZM298.695 440.489L469.844 576.13L435.225 302.327L298.695 440.489Z" fill="url(#paint9_linear_2822_237)"/>
<path d="M472.408 587.537L288.974 434.12L443.493 291.142L472.408 587.537ZM292.178 434.06L469.771 582.585L441.788 295.614L292.189 434.023L292.178 434.06Z" fill="url(#paint10_linear_2822_237)"/>
<path d="M472.059 594.356L282.277 427.03L450.887 284.594L451.045 286.746L472.059 594.356ZM285.525 427.105L469.56 589.363L449 288.972L285.486 427.093L285.525 427.105Z" fill="url(#paint11_linear_2822_237)"/>
<path d="M471.457 601.463L275.393 419.44L458.931 278.119L471.457 601.463ZM278.657 419.6L469.134 596.442L456.961 282.351L278.696 419.611L278.657 419.6Z" fill="url(#paint12_linear_2822_237)"/>
<path d="M470.574 608.811L268.29 411.178L269.298 410.465L467.646 271.641L470.574 608.811ZM271.598 411.472L468.389 603.75L465.556 275.715L271.598 411.472Z" fill="url(#paint13_linear_2822_237)"/>
<path d="M469.399 616.437L260.995 402.291L477.127 265.268L469.399 616.437ZM264.32 402.672L467.352 611.335L474.866 269.211L264.308 402.709L264.32 402.672Z" fill="url(#paint14_linear_2822_237)"/>
<path d="M467.932 624.339L253.568 392.718L487.372 259L487.254 260.949L467.894 624.327L467.932 624.339ZM256.926 393.27L466.049 619.246L485.056 262.846L256.953 393.318L256.926 393.27Z" fill="url(#paint15_linear_2822_237)"/>
<path d="M466.135 632.508L246.011 382.458L498.537 252.885L466.146 632.471L466.135 632.508ZM249.373 383.133L464.39 627.375L496.061 256.562L249.373 383.133Z" fill="url(#paint16_linear_2822_237)"/>
<path d="M463.929 640.921L238.255 371.452L510.51 247.01L463.918 640.958L463.929 640.921ZM241.673 372.224L462.399 635.771L507.963 250.504L241.673 372.224Z" fill="url(#paint17_linear_2822_237)"/>
<path d="M461.344 649.624L230.39 359.683L523.468 241.346L461.344 649.624ZM233.813 360.579L459.929 644.509L520.74 244.746L233.802 360.616L233.813 360.579Z" fill="url(#paint18_linear_2822_237)"/>
<path d="M458.312 658.56L222.438 347.08L537.378 236.006L458.301 658.598L458.312 658.56ZM225.866 348.098L457.062 653.453L534.579 239.222L225.866 348.098Z" fill="url(#paint19_linear_2822_237)"/>
<path d="M454.823 667.766L214.399 333.642L552.329 230.975L454.823 667.766ZM217.833 334.783L453.777 662.679L549.486 234.057L217.833 334.783Z" fill="url(#paint20_linear_2822_237)"/>
<path d="M450.8 677.217L206.257 319.282L568.364 226.387L567.855 228.098L450.8 677.217ZM209.696 320.546L449.92 672.138L565.399 229.312L209.696 320.546Z" fill="url(#paint21_linear_2822_237)"/>
<path d="M446.254 686.877L198.099 303.986L585.57 222.228L446.254 686.877ZM201.532 305.411L445.516 681.881L582.512 225.044L201.532 305.411Z" fill="url(#paint22_linear_2822_237)"/>
<path d="M441.097 696.76L189.897 287.706L603.954 218.621L603.38 220.272L441.097 696.76ZM193.325 289.291L440.513 691.81L600.775 221.28L193.325 289.291Z" fill="url(#paint23_linear_2822_237)"/>
<path d="M435.328 706.867L181.692 270.454L623.631 215.602L435.328 706.867ZM185.136 272.125L434.909 701.925L620.358 218.151L185.136 272.125Z" fill="url(#paint24_linear_2822_237)"/>
<path d="M428.883 717.136L173.565 252.09L644.607 213.29L643.917 214.907L428.883 717.136ZM177.004 253.921L428.646 712.289L641.213 215.682L177.004 253.921Z" fill="url(#paint25_linear_2822_237)"/>
<path d="M421.672 727.583L165.543 232.667L666.946 211.75L421.672 727.583ZM168.91 234.598L421.589 722.782L663.52 213.97L168.91 234.598Z" fill="url(#paint26_linear_2822_237)"/>
<path d="M413.744 738.182L157.583 212.046L690.754 211.05L689.959 212.595L413.744 738.182ZM160.982 214.149L413.815 733.427L687.195 213.15L160.982 214.149Z" fill="url(#paint27_linear_2822_237)"/>
<path d="M404.959 748.85L149.839 190.276L716.037 211.314L715.177 212.799L404.959 748.85ZM153.167 192.478L405.135 744.166L712.446 213.242L153.167 192.478Z" fill="url(#paint28_linear_2822_237)"/>
<path d="M395.254 759.649L394.435 757.746L142.295 167.268L742.898 212.613L395.254 759.649ZM145.617 169.632L395.649 755.07L739.213 214.433L145.617 169.632Z" fill="url(#paint29_linear_2822_237)"/>
<path d="M384.624 770.457L135 143L771.421 215.094L770.407 216.534L384.652 770.505L384.624 770.457ZM138.3 145.438L385.152 765.999L767.616 216.757L138.3 145.438Z" fill="url(#paint30_linear_2822_237)"/>
<path d="M373.009 781.336L128.064 117.381L801.582 218.832L373.009 781.336ZM131.281 119.956L373.652 776.913L797.733 220.36L131.281 119.956Z" fill="url(#paint31_linear_2822_237)"/>
<path d="M360.325 792.141L121.525 90.4222L123.314 90.7511L833.542 223.993L832.423 225.361L360.325 792.141ZM124.698 93.1458L361.1 787.837L829.61 225.375L124.698 93.1458Z" fill="url(#paint32_linear_2822_237)"/>
<path d="M346.475 802.923L115.407 62.0505L867.318 230.666L346.475 802.923ZM118.547 64.8857L347.394 798.703L863.303 231.902L118.547 64.8857Z" fill="url(#paint33_linear_2822_237)"/>
<path d="M331.453 813.56L109.834 32.2628L902.979 239.032L331.453 813.56ZM112.892 35.2354L332.503 809.46L898.882 240.123L112.892 35.2354Z" fill="url(#paint34_linear_2822_237)"/>
<path d="M315.142 824.016L104.869 0.995117L940.608 249.238L315.142 824.016ZM107.855 4.06786L316.324 820.036L936.429 250.182L107.855 4.06786Z" fill="url(#paint35_linear_2822_237)"/>
</g>
<defs>
<linearGradient id="paint0_linear_2822_237" x1="362.038" y1="422.28" x2="488.957" y2="459.979" gradientUnits="userSpaceOnUse">
<stop stop-color="#264E8A"/>
<stop offset="0.95" stop-color="#E9E9E9"/>
<stop offset="1" stop-color="#E9E9E9"/>
</linearGradient>
<linearGradient id="paint1_linear_2822_237" x1="357.242" y1="419.66" x2="491.402" y2="459.51" gradientUnits="userSpaceOnUse">
<stop stop-color="#264E8A"/>
<stop offset="0.95" stop-color="#E9E9E9"/>
<stop offset="1" stop-color="#E9E9E9"/>
</linearGradient>
<linearGradient id="paint2_linear_2822_237" x1="352.224" y1="416.935" x2="493.857" y2="459.005" gradientUnits="userSpaceOnUse">
<stop stop-color="#264E8A"/>
<stop offset="0.95" stop-color="#E9E9E9"/>
<stop offset="1" stop-color="#E9E9E9"/>
</linearGradient>
<linearGradient id="paint3_linear_2822_237" x1="346.932" y1="414.148" x2="496.308" y2="458.517" gradientUnits="userSpaceOnUse">
<stop stop-color="#264E8A"/>
<stop offset="0.95" stop-color="#E9E9E9"/>
<stop offset="1" stop-color="#E9E9E9"/>
</linearGradient>
<linearGradient id="paint4_linear_2822_237" x1="341.37" y1="411.281" x2="498.719" y2="458.019" gradientUnits="userSpaceOnUse">
<stop stop-color="#264E8A"/>
<stop offset="0.95" stop-color="#E9E9E9"/>
<stop offset="1" stop-color="#E9E9E9"/>
</linearGradient>
<linearGradient id="paint5_linear_2822_237" x1="335.489" y1="408.36" x2="501.12" y2="457.558" gradientUnits="userSpaceOnUse">
<stop stop-color="#264E8A"/>
<stop offset="0.95" stop-color="#E9E9E9"/>
<stop offset="1" stop-color="#E9E9E9"/>
</linearGradient>
<linearGradient id="paint6_linear_2822_237" x1="329.267" y1="405.317" x2="503.371" y2="457.032" gradientUnits="userSpaceOnUse">
<stop stop-color="#264E8A"/>
<stop offset="0.95" stop-color="#E9E9E9"/>
<stop offset="1" stop-color="#E9E9E9"/>
</linearGradient>
<linearGradient id="paint7_linear_2822_237" x1="322.758" y1="402.25" x2="505.607" y2="456.562" gradientUnits="userSpaceOnUse">
<stop stop-color="#264E8A"/>
<stop offset="0.95" stop-color="#E9E9E9"/>
<stop offset="1" stop-color="#E9E9E9"/>
</linearGradient>
<linearGradient id="paint8_linear_2822_237" x1="315.919" y1="399.166" x2="507.743" y2="456.144" gradientUnits="userSpaceOnUse">
<stop stop-color="#264E8A"/>
<stop offset="0.95" stop-color="#E9E9E9"/>
<stop offset="1" stop-color="#E9E9E9"/>
</linearGradient>
<linearGradient id="paint9_linear_2822_237" x1="308.773" y1="395.99" x2="509.803" y2="455.702" gradientUnits="userSpaceOnUse">
<stop stop-color="#264E8A"/>
<stop offset="0.95" stop-color="#E9E9E9"/>
<stop offset="1" stop-color="#E9E9E9"/>
</linearGradient>
<linearGradient id="paint10_linear_2822_237" x1="301.257" y1="392.785" x2="511.685" y2="455.289" gradientUnits="userSpaceOnUse">
<stop stop-color="#264E8A"/>
<stop offset="0.95" stop-color="#E9E9E9"/>
<stop offset="1" stop-color="#E9E9E9"/>
</linearGradient>
<linearGradient id="paint11_linear_2822_237" x1="293.417" y1="389.545" x2="513.474" y2="454.909" gradientUnits="userSpaceOnUse">
<stop stop-color="#264E8A"/>
<stop offset="0.95" stop-color="#E9E9E9"/>
<stop offset="1" stop-color="#E9E9E9"/>
</linearGradient>
<linearGradient id="paint12_linear_2822_237" x1="285.235" y1="386.325" x2="515.077" y2="454.595" gradientUnits="userSpaceOnUse">
<stop stop-color="#264E8A"/>
<stop offset="0.95" stop-color="#E9E9E9"/>
<stop offset="1" stop-color="#E9E9E9"/>
</linearGradient>
<linearGradient id="paint13_linear_2822_237" x1="276.652" y1="383.046" x2="516.47" y2="454.28" gradientUnits="userSpaceOnUse">
<stop stop-color="#264E8A"/>
<stop offset="0.95" stop-color="#E9E9E9"/>
<stop offset="1" stop-color="#E9E9E9"/>
</linearGradient>
<linearGradient id="paint14_linear_2822_237" x1="267.689" y1="379.776" x2="517.637" y2="454.019" gradientUnits="userSpaceOnUse">
<stop stop-color="#264E8A"/>
<stop offset="0.95" stop-color="#E9E9E9"/>
<stop offset="1" stop-color="#E9E9E9"/>
</linearGradient>
<linearGradient id="paint15_linear_2822_237" x1="258.384" y1="376.525" x2="518.578" y2="453.812" gradientUnits="userSpaceOnUse">
<stop stop-color="#264E8A"/>
<stop offset="0.95" stop-color="#E9E9E9"/>
<stop offset="1" stop-color="#E9E9E9"/>
</linearGradient>
<linearGradient id="paint16_linear_2822_237" x1="248.739" y1="373.295" x2="519.256" y2="453.648" gradientUnits="userSpaceOnUse">
<stop stop-color="#264E8A"/>
<stop offset="0.95" stop-color="#E9E9E9"/>
<stop offset="1" stop-color="#E9E9E9"/>
</linearGradient>
<linearGradient id="paint17_linear_2822_237" x1="238.652" y1="370.137" x2="519.569" y2="453.579" gradientUnits="userSpaceOnUse">
<stop stop-color="#264E8A"/>
<stop offset="0.95" stop-color="#E9E9E9"/>
<stop offset="1" stop-color="#E9E9E9"/>
</linearGradient>
<linearGradient id="paint18_linear_2822_237" x1="228.225" y1="366.998" x2="519.58" y2="453.54" gradientUnits="userSpaceOnUse">
<stop stop-color="#264E8A"/>
<stop offset="0.95" stop-color="#E9E9E9"/>
<stop offset="1" stop-color="#E9E9E9"/>
</linearGradient>
<linearGradient id="paint19_linear_2822_237" x1="217.422" y1="363.991" x2="519.178" y2="453.623" gradientUnits="userSpaceOnUse">
<stop stop-color="#264E8A"/>
<stop offset="0.95" stop-color="#E9E9E9"/>
<stop offset="1" stop-color="#E9E9E9"/>
</linearGradient>
<linearGradient id="paint20_linear_2822_237" x1="206.268" y1="361.042" x2="518.385" y2="453.751" gradientUnits="userSpaceOnUse">
<stop stop-color="#264E8A"/>
<stop offset="0.95" stop-color="#E9E9E9"/>
<stop offset="1" stop-color="#E9E9E9"/>
</linearGradient>
<linearGradient id="paint21_linear_2822_237" x1="194.69" y1="358.25" x2="517.092" y2="454.014" gradientUnits="userSpaceOnUse">
<stop stop-color="#264E8A"/>
<stop offset="0.95" stop-color="#E9E9E9"/>
<stop offset="1" stop-color="#E9E9E9"/>
</linearGradient>
<linearGradient id="paint22_linear_2822_237" x1="182.781" y1="355.581" x2="516.507" y2="454.709" gradientUnits="userSpaceOnUse">
<stop stop-color="#264E8A"/>
<stop offset="0.95" stop-color="#E9E9E9"/>
<stop offset="1" stop-color="#E9E9E9"/>
</linearGradient>
<linearGradient id="paint23_linear_2822_237" x1="170.482" y1="353.101" x2="532.095" y2="460.513" gradientUnits="userSpaceOnUse">
<stop stop-color="#264E8A"/>
<stop offset="0.95" stop-color="#E9E9E9"/>
<stop offset="1" stop-color="#E9E9E9"/>
</linearGradient>
<linearGradient id="paint24_linear_2822_237" x1="157.829" y1="350.82" x2="548.949" y2="466.996" gradientUnits="userSpaceOnUse">
<stop stop-color="#264E8A"/>
<stop offset="0.95" stop-color="#E9E9E9"/>
<stop offset="1" stop-color="#E9E9E9"/>
</linearGradient>
<linearGradient id="paint25_linear_2822_237" x1="144.853" y1="348.786" x2="567.096" y2="474.206" gradientUnits="userSpaceOnUse">
<stop stop-color="#264E8A"/>
<stop offset="0.95" stop-color="#E9E9E9"/>
<stop offset="1" stop-color="#E9E9E9"/>
</linearGradient>
<linearGradient id="paint26_linear_2822_237" x1="131.579" y1="347.049" x2="586.601" y2="482.206" gradientUnits="userSpaceOnUse">
<stop stop-color="#264E8A"/>
<stop offset="0.95" stop-color="#E9E9E9"/>
<stop offset="1" stop-color="#E9E9E9"/>
</linearGradient>
<linearGradient id="paint27_linear_2822_237" x1="117.929" y1="345.585" x2="607.579" y2="491.027" gradientUnits="userSpaceOnUse">
<stop stop-color="#264E8A"/>
<stop offset="0.95" stop-color="#E9E9E9"/>
<stop offset="1" stop-color="#E9E9E9"/>
</linearGradient>
<linearGradient id="paint28_linear_2822_237" x1="104.049" y1="344.477" x2="630.061" y2="500.72" gradientUnits="userSpaceOnUse">
<stop stop-color="#264E8A"/>
<stop offset="0.95" stop-color="#E9E9E9"/>
<stop offset="1" stop-color="#E9E9E9"/>
</linearGradient>
<linearGradient id="paint29_linear_2822_237" x1="89.8817" y1="343.769" x2="654.143" y2="511.373" gradientUnits="userSpaceOnUse">
<stop stop-color="#264E8A"/>
<stop offset="0.95" stop-color="#E9E9E9"/>
<stop offset="1" stop-color="#E9E9E9"/>
</linearGradient>
<linearGradient id="paint30_linear_2822_237" x1="75.4614" y1="343.492" x2="679.936" y2="523.041" gradientUnits="userSpaceOnUse">
<stop stop-color="#264E8A"/>
<stop offset="0.95" stop-color="#E9E9E9"/>
<stop offset="1" stop-color="#E9E9E9"/>
</linearGradient>
<linearGradient id="paint31_linear_2822_237" x1="60.8583" y1="343.688" x2="707.434" y2="535.742" gradientUnits="userSpaceOnUse">
<stop stop-color="#264E8A"/>
<stop offset="0.95" stop-color="#E9E9E9"/>
<stop offset="1" stop-color="#E9E9E9"/>
</linearGradient>
<linearGradient id="paint32_linear_2822_237" x1="46.095" y1="344.422" x2="736.813" y2="549.588" gradientUnits="userSpaceOnUse">
<stop stop-color="#264E8A"/>
<stop offset="0.95" stop-color="#E9E9E9"/>
<stop offset="1" stop-color="#E9E9E9"/>
</linearGradient>
<linearGradient id="paint33_linear_2822_237" x1="31.1555" y1="345.752" x2="768.096" y2="564.648" gradientUnits="userSpaceOnUse">
<stop stop-color="#264E8A"/>
<stop offset="0.95" stop-color="#E9E9E9"/>
<stop offset="1" stop-color="#E9E9E9"/>
</linearGradient>
<linearGradient id="paint34_linear_2822_237" x1="16.1487" y1="347.73" x2="801.392" y2="580.974" gradientUnits="userSpaceOnUse">
<stop stop-color="#264E8A"/>
<stop offset="0.95" stop-color="#E9E9E9"/>
<stop offset="1" stop-color="#E9E9E9"/>
</linearGradient>
<linearGradient id="paint35_linear_2822_237" x1="1.09714" y1="350.423" x2="836.8" y2="598.655" gradientUnits="userSpaceOnUse">
<stop stop-color="#264E8A"/>
<stop offset="0.95" stop-color="#E9E9E9"/>
<stop offset="1" stop-color="#E9E9E9"/>
</linearGradient>
<clipPath id="clip0_2822_237">
<rect width="871.828" height="729.08" fill="white" transform="translate(104.869 0.995117) rotate(16.5432)"/>
</clipPath>
</defs>
</svg>
