<svg width="194" height="194" viewBox="0 0 194 194" fill="none" xmlns="http://www.w3.org/2000/svg">
<g clip-path="url(#clip0_2895_19)">
<path d="M56.4598 150.85C52.7698 150.85 49.8298 149.82 47.7998 147.75C42.8198 142.66 43.8898 131.69 50.7498 117.65C64.1298 90.2499 95.5298 58.4599 120.75 46.7799C132.26 41.4499 141.05 41.0099 145.48 45.5399C150.46 50.6299 149.39 61.5999 142.53 75.6399C129.15 103.04 97.7498 134.83 72.5298 146.51C66.2798 149.4 60.8398 150.86 56.4598 150.86V150.85ZM120.98 47.2899C95.8698 58.9199 64.5898 90.5899 51.2498 117.9C44.4998 131.71 43.3898 142.45 48.1998 147.35C52.4598 151.69 61.0098 151.21 72.2898 145.99C97.3998 134.36 128.68 102.69 142.02 75.3799C148.77 61.5699 149.88 50.8299 145.07 45.9299C140.81 41.5899 132.26 42.0699 120.98 47.2899Z" fill="url(#paint0_linear_2895_19)"/>
<path d="M53.7996 151.58C49.4796 151.58 46.1296 150.34 43.9596 147.86C38.8796 142.07 40.7496 130.11 49.0796 115.05C64.7996 86.65 98.8496 55.2 124.99 44.95C136.47 40.45 145.11 40.61 149.31 45.4C154.39 51.19 152.52 63.15 144.19 78.21C128.47 106.61 94.4196 138.06 68.2796 148.32C62.7296 150.5 57.8396 151.59 53.7996 151.59V151.58ZM139.47 42.25C135.51 42.25 130.69 43.33 125.19 45.48C99.1597 55.69 65.2396 87.03 49.5696 115.33C41.3596 130.16 39.4696 141.89 44.3796 147.49C48.4096 152.09 56.8196 152.2 68.0696 147.79C94.0996 137.58 128.02 106.24 143.69 77.94C151.9 63.11 153.79 51.39 148.88 45.78C146.82 43.43 143.61 42.25 139.47 42.25Z" fill="url(#paint1_linear_2895_19)"/>
<path d="M51.3804 152.15C46.3004 152.15 42.4404 150.65 40.1204 147.68C34.9804 141.1 37.7304 128.13 47.6604 112.1C65.7904 82.84 102.46 52.01 129.39 43.38C140.76 39.74 149.21 40.52 153.17 45.59C158.31 52.17 155.56 65.14 145.63 81.17C127.5 110.43 90.8304 141.26 63.9004 149.89C59.1904 151.4 54.9804 152.15 51.3804 152.15ZM141.9 41.69C138.37 41.69 134.21 42.43 129.55 43.93C102.73 52.52 66.2004 83.24 48.1304 112.41C38.3304 128.22 35.5704 140.95 40.5604 147.34C44.3604 152.21 52.5904 152.92 63.7204 149.36C90.5404 140.77 127.07 110.05 145.14 80.88C154.94 65.07 157.7 52.34 152.71 45.95C150.5 43.12 146.8 41.7 141.9 41.7V41.69Z" fill="url(#paint2_linear_2895_19)"/>
<path d="M49.0997 152.58C43.1297 152.58 38.7697 150.76 36.2697 147.15C31.1097 139.69 34.8297 125.7 46.4797 108.77C67.0897 78.8002 106.3 48.9002 133.89 42.1102C145.25 39.3102 153.24 40.7002 157 46.1302C162.16 53.5902 158.44 67.5802 146.79 84.5102C126.18 114.48 86.9697 144.38 59.3797 151.17C55.5597 152.11 52.1197 152.58 49.0997 152.58ZM144.18 41.2602C141.2 41.2602 137.81 41.7202 134.03 42.6502C106.56 49.4102 67.4997 79.2202 46.9597 109.09C35.4497 125.82 31.7297 139.57 36.7497 146.83C40.3597 152.05 48.1397 153.36 59.2497 150.62C86.7197 143.86 125.78 114.05 146.32 84.1802C157.83 67.4502 161.55 53.7002 156.53 46.4402C154.15 43.0002 149.95 41.2502 144.18 41.2502V41.2602Z" fill="url(#paint3_linear_2895_19)"/>
<path d="M47.3196 152.81C40.1696 152.81 35.0996 150.59 32.4596 146.24C27.3496 137.8 32.1396 122.78 45.6096 105.04C68.7596 74.5401 110.43 45.8801 138.5 41.1301C149.62 39.2501 157.34 41.2901 160.81 47.0201C165.92 55.4601 161.13 70.4801 147.66 88.2201C124.51 118.72 82.8396 147.38 54.7696 152.13C52.0796 152.58 49.5896 152.81 47.3196 152.81ZM145.96 41.0301C143.71 41.0301 141.26 41.2501 138.6 41.7001C110.65 46.4201 69.1396 74.9901 46.0696 105.39C32.9496 122.68 28.0496 137.84 32.9596 145.95C36.2996 151.47 43.8096 153.41 54.6896 151.57C82.6396 146.85 124.15 118.28 147.22 87.8801C160.34 70.5901 165.24 55.4301 160.33 47.3201C157.81 43.1501 152.9 41.0201 145.96 41.0201V41.0301Z" fill="url(#paint4_linear_2895_19)"/>
<path d="M46.0497 152.92C37.4197 152.92 31.4597 150.19 28.7097 144.92C23.8097 135.53 29.9197 119.09 45.0697 100.93C70.7897 70.0999 114.8 43.0099 143.18 40.5299C154.01 39.5799 161.41 42.2899 164.57 48.3499C169.47 57.7399 163.36 74.1799 148.21 92.3299C122.49 123.16 78.4797 150.25 50.0997 152.73C48.6897 152.85 47.3397 152.91 46.0497 152.91V152.92ZM143.22 41.0999C114.97 43.5599 71.1297 70.5699 45.4997 101.3C30.5097 119.27 24.4197 135.48 29.2097 144.66C32.2597 150.5 39.4697 153.1 50.0497 152.18C78.2997 149.72 122.14 122.71 147.77 91.9799C162.76 74.0099 168.86 57.7999 164.06 48.6199C161.01 42.7799 153.8 40.1799 143.22 41.0999Z" fill="url(#paint5_linear_2895_19)"/>
<path d="M45.4003 152.95H45.3903C34.9003 152.95 27.8603 149.55 25.0303 143.13C20.3803 132.56 27.8003 115.1 44.8803 96.4298C73.1803 65.4898 119.38 40.3198 147.87 40.3198H147.88C158.37 40.3198 165.41 43.7198 168.24 50.1398C172.89 60.7098 165.47 78.1698 148.39 96.8398C120.09 127.78 73.8903 152.95 45.4003 152.95ZM147.87 40.8898C119.51 40.8898 73.5003 65.9698 45.2903 96.8098C28.3603 115.32 20.9803 132.55 25.5403 142.9C28.2703 149.1 35.1303 152.38 45.3803 152.38H45.3903C73.7503 152.38 119.76 127.3 147.97 96.4598C164.9 77.9498 172.28 60.7198 167.72 50.3698C164.99 44.1698 158.13 40.8898 147.88 40.8898H147.87Z" fill="url(#paint6_linear_2895_19)"/>
<path d="M45.4297 152.95C43.7897 152.95 42.1997 152.88 40.6697 152.73C30.5497 151.76 23.9097 147.65 21.4597 140.83C17.1997 128.97 26.0297 110.54 45.0797 91.5402C75.9797 60.7102 124.21 37.8402 152.6 40.5402C162.72 41.5102 169.36 45.6202 171.81 52.4402C176.07 64.3002 167.24 82.7302 148.19 101.73C118.96 130.9 74.2097 152.95 45.4297 152.95ZM147.82 40.8902C119.18 40.8902 74.6197 62.8702 45.4897 91.9402C26.5997 110.79 17.8197 128.99 21.9997 140.64C24.3697 147.24 30.8497 151.23 40.7297 152.17C68.9697 154.86 117 132.06 147.79 101.33C166.68 82.4802 175.46 64.2802 171.28 52.6302C168.91 46.0302 162.43 42.0402 152.55 41.1002C151.03 40.9502 149.45 40.8802 147.82 40.8802V40.8902Z" fill="url(#paint7_linear_2895_19)"/>
<path d="M46.26 152.99C42.59 152.99 39.16 152.68 35.99 152.05C26.27 150.1 20.06 145.22 18.05 137.94C14.38 124.68 24.72 105.36 45.72 86.25C79.19 55.79 129.24 35.59 157.29 41.21C167.01 43.16 173.22 48.04 175.23 55.32C178.9 68.58 168.56 87.9 147.56 107.01C117.86 134.03 75.11 152.99 46.26 152.99ZM146.98 40.84C118.28 40.84 75.7 59.74 46.1 86.67C25.26 105.63 14.98 124.74 18.59 137.79C20.55 144.85 26.6 149.59 36.1 151.5C39.24 152.13 42.65 152.43 46.29 152.43C74.99 152.43 117.57 133.53 147.17 106.6C168.01 87.64 178.29 68.53 174.68 55.48C172.72 48.42 166.67 43.68 157.17 41.77C154.03 41.14 150.62 40.84 146.98 40.84Z" fill="url(#paint8_linear_2895_19)"/>
<path d="M48.0099 153.16C41.8599 153.16 36.2399 152.42 31.3799 150.87C22.0699 147.9 16.3399 142.2 14.8299 134.39C11.9699 119.66 23.9199 99.55 46.7999 80.6C82.7999 50.79 134.42 33.65 161.88 42.4C171.19 45.37 176.92 51.07 178.43 58.88C181.29 73.61 169.34 93.72 146.46 112.67C116.83 137.2 76.6199 153.15 48.0099 153.16ZM145.22 40.67C116.76 40.67 76.6999 56.58 47.1699 81.03C24.4499 99.84 12.5699 119.75 15.3899 134.28C16.8599 141.88 22.4599 147.43 31.5599 150.33C58.8599 159.03 110.24 141.94 146.11 112.23C168.83 93.42 180.71 73.51 177.89 58.98C176.42 51.38 170.82 45.83 161.72 42.93C156.9 41.39 151.33 40.66 145.22 40.66V40.67Z" fill="url(#paint9_linear_2895_19)"/>
<path d="M50.8202 153.55C41.6502 153.55 33.4702 152.14 26.9002 149.15C18.0002 145.11 12.8102 138.51 11.8902 130.07C10.1102 113.81 23.7602 93.0602 48.3902 74.5702C86.8502 45.7002 139.78 32.0302 166.38 44.1102C175.28 48.1502 180.47 54.7502 181.39 63.1902C183.17 79.4502 169.52 100.2 144.89 118.69C115.93 140.43 78.7702 153.55 50.8202 153.55ZM142.42 40.2702C114.62 40.2702 77.5902 53.3502 48.7202 75.0302C24.2502 93.4002 10.6902 113.95 12.4402 130.01C13.3402 138.24 18.4202 144.68 27.1202 148.64C53.5502 160.64 106.22 147 144.54 118.24C169.01 99.8702 182.57 79.3202 180.82 63.2502C179.92 55.0202 174.84 48.5802 166.14 44.6202C159.63 41.6602 151.52 40.2602 142.42 40.2602V40.2702Z" fill="url(#paint10_linear_2895_19)"/>
<path d="M54.7196 154.3C41.9696 154.3 30.7896 151.91 22.5796 146.87C14.0996 141.67 9.4996 134.07 9.2996 124.89C8.8996 107.11 24.2996 85.92 50.4896 68.21C91.3296 40.59 145.26 30.8 170.7 46.4C179.18 51.6 183.78 59.2 183.98 68.38C184.38 86.16 168.98 107.35 142.79 125.06C115.13 143.77 81.4696 154.29 54.7196 154.29V154.3ZM138.53 39.52C111.91 39.52 78.3696 50.02 50.7996 68.67C24.7696 86.28 9.4696 107.29 9.8596 124.88C10.0596 133.86 14.5596 141.3 22.8696 146.39C48.1496 161.88 101.8 152.11 142.47 124.6C168.5 106.99 183.8 85.98 183.41 68.4C183.21 59.42 178.71 51.98 170.4 46.89C162.26 41.9 151.18 39.53 138.53 39.53V39.52Z" fill="url(#paint11_linear_2895_19)"/>
<path d="M59.6602 155.53C42.7902 155.53 28.1502 151.78 18.4702 143.99C10.4102 137.5 6.50023 128.76 7.18023 118.71C8.47023 99.5001 25.6402 78.1101 53.1302 61.5001C96.2302 35.4501 150.81 29.9701 174.81 49.2701C182.87 55.7601 186.78 64.5001 186.1 74.5501C184.81 93.7601 167.64 115.15 140.15 131.76C114.43 147.3 84.6202 155.52 59.6702 155.52L59.6602 155.53ZM133.61 38.2901C108.77 38.2901 79.0602 46.4901 53.4202 61.9901C26.0902 78.5101 9.02023 99.7201 7.74023 118.75C7.08023 128.61 10.9102 137.18 18.8202 143.55C42.6502 162.72 96.9402 157.21 139.85 131.28C167.17 114.77 184.25 93.5501 185.52 74.5201C186.18 64.6601 182.35 56.0901 174.44 49.7201C164.85 42.0101 150.33 38.2901 133.61 38.2901Z" fill="url(#paint12_linear_2895_19)"/>
<path d="M65.4305 157.38C44.0105 157.38 25.4605 151.77 14.6405 140.48C7.03048 132.54 3.93048 122.49 5.70048 111.43C8.96048 90.9702 27.9005 69.6902 56.3505 54.5002C101.56 30.3802 156.42 29.6102 178.64 52.7902C186.25 60.7302 189.35 70.7802 187.58 81.8402C184.32 102.3 165.38 123.58 136.93 138.77C113.74 151.15 87.9905 157.38 65.4305 157.38ZM127.87 36.4402C105.4 36.4402 79.7505 42.6502 56.6105 55.0002C28.3105 70.1002 9.49048 91.2302 6.25048 111.52C4.51048 122.4 7.55048 132.28 15.0405 140.09C37.1005 163.1 91.6605 162.28 136.66 138.27C164.96 123.17 183.78 102.04 187.02 81.7502C188.76 70.8702 185.72 60.9902 178.23 53.1802C167.51 42.0002 149.11 36.4402 127.87 36.4402Z" fill="url(#paint13_linear_2895_19)"/>
<path d="M71.6503 159.96C45.4203 159.96 22.6203 151.87 11.1203 136.32C4.01027 126.7 1.90028 115.16 5.02028 102.95C10.4903 81.52 31.1103 60.69 60.1703 47.22C107.32 25.38 162.04 29.74 182.16 56.95C189.27 66.57 191.38 78.11 188.26 90.32C182.79 111.75 162.17 132.59 133.11 146.05C112.91 155.41 91.3103 159.96 71.6503 159.96ZM121.66 33.87C102.07 33.87 80.5503 38.4 60.4003 47.74C31.5003 61.13 11.0003 81.82 5.56028 103.09C2.48028 115.14 4.56027 126.51 11.5703 135.99C31.5403 162.99 85.9603 167.28 132.87 145.54C161.77 132.15 182.27 111.46 187.71 90.19C190.79 78.14 188.71 66.77 181.7 57.29C170.3 41.88 147.69 33.87 121.66 33.87Z" fill="url(#paint14_linear_2895_19)"/>
<path d="M77.8599 163.36C46.7399 163.36 19.5399 152.02 7.9699 131.49C1.4599 119.93 0.549897 106.7 5.3399 93.2198C13.1699 71.1998 35.3199 51.1998 64.5899 39.7098C113.47 20.5198 167.61 30.4298 185.28 61.7998C191.79 73.3598 192.7 86.5898 187.91 100.07C180.08 122.09 157.93 142.09 128.66 153.58C111.78 160.21 94.2699 163.36 77.8499 163.36H77.8599ZM115.44 30.4698C99.0899 30.4698 81.6399 33.6198 64.8099 40.2198C35.6899 51.6498 13.6699 71.5298 5.8899 93.3998C1.1499 106.72 2.0499 119.79 8.4799 131.2C26.0199 162.33 79.8499 172.13 128.47 153.04C157.59 141.61 179.61 121.73 187.39 99.8598C192.13 86.5398 191.23 73.4698 184.8 62.0598C173.33 41.6998 146.34 30.4698 115.44 30.4698Z" fill="url(#paint15_linear_2895_19)"/>
<path d="M83.63 167.62C47.71 167.62 16.2 152.12 5.27999 125.95C-0.49001 112.14 0.0799894 97.0199 6.90999 82.2299C17.14 60.0899 40.6 41.2999 69.68 31.9799C120.05 15.8299 173.13 31.6899 188 67.3299C193.76 81.1399 193.2 96.2599 186.37 111.06C176.14 133.2 152.68 151.99 123.6 161.31C110.21 165.6 96.63 167.63 83.63 167.63V167.62ZM109.67 26.2099C96.72 26.2099 83.19 28.2299 69.85 32.5099C40.92 41.7899 17.58 60.4599 7.41999 82.4599C0.659989 97.1099 0.0999899 112.08 5.79999 125.74C16.63 151.69 47.92 167.06 83.61 167.06C96.56 167.06 110.09 165.04 123.43 160.76C152.36 151.48 175.7 132.81 185.86 110.81C192.62 96.1599 193.19 81.1999 187.49 67.5399C176.66 41.5899 145.37 26.2199 109.68 26.2199L109.67 26.2099Z" fill="url(#paint16_linear_2895_19)"/>
<path d="M88.5697 172.77C48.0397 172.77 12.5297 152.07 3.05973 119.71C-1.74027 103.31 0.609726 86.1401 9.86973 70.0601C22.5797 47.9801 46.4697 31.2201 75.4097 24.0901C127 11.3701 178.5 33.5701 190.21 73.5601C195.01 89.9601 192.66 107.13 183.4 123.21C170.69 145.29 146.8 162.05 117.86 169.18C108 171.61 98.1497 172.76 88.5697 172.76V172.77ZM104.71 21.0701C95.1797 21.0701 85.3697 22.2201 75.5497 24.6401C46.7597 31.7401 22.9997 48.4001 10.3697 70.3501C1.18973 86.2901 -1.15027 103.31 3.60973 119.55C13.0097 151.66 48.2797 172.2 88.5597 172.2C98.0897 172.2 107.9 171.05 117.72 168.63C146.51 161.53 170.27 144.87 182.9 122.92C192.08 106.98 194.41 89.9601 189.66 73.7101C180.26 41.6001 144.99 21.0601 104.71 21.0601V21.0701Z" fill="url(#paint17_linear_2895_19)"/>
<path d="M92.4603 178.78C47.5203 178.78 8.59034 151.74 1.41034 112.75C-2.09966 93.6902 2.51034 73.8501 14.3903 56.8701C29.2003 35.7001 53.7803 20.8401 81.8103 16.1001C134.32 7.22015 183.69 36.1202 191.86 80.5302C195.37 99.5902 190.76 119.43 178.88 136.41C164.07 157.58 139.49 172.44 111.46 177.18C105.06 178.26 98.7003 178.78 92.4603 178.78ZM100.81 15.0601C94.6003 15.0601 88.2803 15.5801 81.9003 16.6601C54.0203 21.3701 29.5803 36.1502 14.8503 57.2001C3.06034 74.0501 -1.50966 93.7402 1.97034 112.65C9.10034 151.37 47.8003 178.22 92.4603 178.22C98.6703 178.22 104.99 177.7 111.37 176.62C139.26 171.9 163.7 157.13 178.42 136.08C190.21 119.23 194.79 99.5401 191.31 80.6301C184.18 41.9101 145.48 15.0601 100.82 15.0601H100.81Z" fill="url(#paint18_linear_2895_19)"/>
<path d="M95.1696 185.63C45.9996 185.63 4.38964 151.06 0.369644 105.06C-3.91036 56.21 35.7996 12.69 88.8896 8.05001C114.6 5.80001 139.58 12.9 159.22 28.03C178.87 43.17 190.84 64.55 192.91 88.21C194.98 111.88 186.91 135 170.19 153.33C153.47 171.65 130.11 182.97 104.4 185.22C101.31 185.49 98.2196 185.62 95.1796 185.62L95.1696 185.63ZM98.2096 8.20001C95.1396 8.20001 92.0396 8.33001 88.9396 8.61001C36.1596 13.23 -3.31036 56.47 0.929644 105.01C4.92964 150.71 46.2896 185.06 95.1696 185.06C98.1996 185.06 101.26 184.93 104.34 184.66C129.91 182.42 153.14 171.16 169.77 152.95C186.39 134.74 194.4 111.77 192.35 88.26C190.29 64.75 178.41 43.52 158.88 28.48C141.72 15.26 120.46 8.21001 98.2096 8.21001V8.20001Z" fill="url(#paint19_linear_2895_19)"/>
<path d="M96.64 193.27C43.35 193.27 0 149.92 0 96.64C0 43.36 43.35 0 96.64 0C149.93 0 193.28 43.35 193.28 96.64C193.28 149.93 149.93 193.28 96.64 193.28V193.27ZM96.64 0.57C43.66 0.57 0.57 43.66 0.57 96.64C0.57 149.62 43.67 192.71 96.64 192.71C149.61 192.71 192.71 149.61 192.71 96.64C192.71 43.67 149.61 0.57 96.64 0.57Z" fill="url(#paint20_linear_2895_19)"/>
</g>
<defs>
<linearGradient id="paint0_linear_2895_19" x1="44.7093" y1="96.6435" x2="148.57" y2="96.6435" gradientUnits="userSpaceOnUse">
<stop stop-color="#264E8A"/>
<stop offset="0.95" stop-color="#E9E9E9"/>
<stop offset="1" stop-color="#E9E9E9"/>
</linearGradient>
<linearGradient id="paint1_linear_2895_19" x1="41.1528" y1="96.6345" x2="152.116" y2="96.6345" gradientUnits="userSpaceOnUse">
<stop stop-color="#264E8A"/>
<stop offset="0.95" stop-color="#E9E9E9"/>
<stop offset="1" stop-color="#E9E9E9"/>
</linearGradient>
<linearGradient id="paint2_linear_2895_19" x1="37.5866" y1="96.632" x2="155.704" y2="96.632" gradientUnits="userSpaceOnUse">
<stop stop-color="#264E8A"/>
<stop offset="0.95" stop-color="#E9E9E9"/>
<stop offset="1" stop-color="#E9E9E9"/>
</linearGradient>
<linearGradient id="paint3_linear_2895_19" x1="33.9998" y1="96.6363" x2="159.27" y2="96.6363" gradientUnits="userSpaceOnUse">
<stop stop-color="#264E8A"/>
<stop offset="0.95" stop-color="#E9E9E9"/>
<stop offset="1" stop-color="#E9E9E9"/>
</linearGradient>
<linearGradient id="paint4_linear_2895_19" x1="30.4629" y1="96.626" x2="162.806" y2="96.626" gradientUnits="userSpaceOnUse">
<stop stop-color="#264E8A"/>
<stop offset="0.95" stop-color="#E9E9E9"/>
<stop offset="1" stop-color="#E9E9E9"/>
</linearGradient>
<linearGradient id="paint5_linear_2895_19" x1="27.0548" y1="96.6277" x2="166.225" y2="96.6277" gradientUnits="userSpaceOnUse">
<stop stop-color="#264E8A"/>
<stop offset="0.95" stop-color="#E9E9E9"/>
<stop offset="1" stop-color="#E9E9E9"/>
</linearGradient>
<linearGradient id="paint6_linear_2895_19" x1="23.6722" y1="96.6305" x2="169.598" y2="96.6305" gradientUnits="userSpaceOnUse">
<stop stop-color="#264E8A"/>
<stop offset="0.95" stop-color="#E9E9E9"/>
<stop offset="1" stop-color="#E9E9E9"/>
</linearGradient>
<linearGradient id="paint7_linear_2895_19" x1="20.4106" y1="96.6326" x2="172.859" y2="96.6326" gradientUnits="userSpaceOnUse">
<stop stop-color="#264E8A"/>
<stop offset="0.95" stop-color="#E9E9E9"/>
<stop offset="1" stop-color="#E9E9E9"/>
</linearGradient>
<linearGradient id="paint8_linear_2895_19" x1="17.3248" y1="96.6264" x2="175.955" y2="96.6264" gradientUnits="userSpaceOnUse">
<stop stop-color="#264E8A"/>
<stop offset="0.95" stop-color="#E9E9E9"/>
<stop offset="1" stop-color="#E9E9E9"/>
</linearGradient>
<linearGradient id="paint9_linear_2895_19" x1="14.4157" y1="96.6325" x2="178.844" y2="96.6325" gradientUnits="userSpaceOnUse">
<stop stop-color="#264E8A"/>
<stop offset="0.95" stop-color="#E9E9E9"/>
<stop offset="1" stop-color="#E9E9E9"/>
</linearGradient>
<linearGradient id="paint10_linear_2895_19" x1="11.7391" y1="96.6271" x2="181.541" y2="96.6271" gradientUnits="userSpaceOnUse">
<stop stop-color="#264E8A"/>
<stop offset="0.95" stop-color="#E9E9E9"/>
<stop offset="1" stop-color="#E9E9E9"/>
</linearGradient>
<linearGradient id="paint11_linear_2895_19" x1="9.29583" y1="96.6333" x2="183.983" y2="96.6333" gradientUnits="userSpaceOnUse">
<stop stop-color="#264E8A"/>
<stop offset="0.95" stop-color="#E9E9E9"/>
<stop offset="1" stop-color="#E9E9E9"/>
</linearGradient>
<linearGradient id="paint12_linear_2895_19" x1="7.10843" y1="96.6277" x2="186.172" y2="96.6277" gradientUnits="userSpaceOnUse">
<stop stop-color="#264E8A"/>
<stop offset="0.95" stop-color="#E9E9E9"/>
<stop offset="1" stop-color="#E9E9E9"/>
</linearGradient>
<linearGradient id="paint13_linear_2895_19" x1="5.21984" y1="96.6332" x2="188.061" y2="96.6332" gradientUnits="userSpaceOnUse">
<stop stop-color="#264E8A"/>
<stop offset="0.95" stop-color="#E9E9E9"/>
<stop offset="1" stop-color="#E9E9E9"/>
</linearGradient>
<linearGradient id="paint14_linear_2895_19" x1="3.62226" y1="96.6316" x2="189.658" y2="96.6316" gradientUnits="userSpaceOnUse">
<stop stop-color="#264E8A"/>
<stop offset="0.95" stop-color="#E9E9E9"/>
<stop offset="1" stop-color="#E9E9E9"/>
</linearGradient>
<linearGradient id="paint15_linear_2895_19" x1="2.31762" y1="96.6374" x2="190.932" y2="96.6374" gradientUnits="userSpaceOnUse">
<stop stop-color="#264E8A"/>
<stop offset="0.95" stop-color="#E9E9E9"/>
<stop offset="1" stop-color="#E9E9E9"/>
</linearGradient>
<linearGradient id="paint16_linear_2895_19" x1="1.33818" y1="96.6378" x2="191.938" y2="96.6378" gradientUnits="userSpaceOnUse">
<stop stop-color="#264E8A"/>
<stop offset="0.95" stop-color="#E9E9E9"/>
<stop offset="1" stop-color="#E9E9E9"/>
</linearGradient>
<linearGradient id="paint17_linear_2895_19" x1="0.638011" y1="96.6311" x2="192.631" y2="96.6311" gradientUnits="userSpaceOnUse">
<stop stop-color="#264E8A"/>
<stop offset="0.95" stop-color="#E9E9E9"/>
<stop offset="1" stop-color="#E9E9E9"/>
</linearGradient>
<linearGradient id="paint18_linear_2895_19" x1="0.26791" y1="96.632" x2="193.003" y2="96.632" gradientUnits="userSpaceOnUse">
<stop stop-color="#264E8A"/>
<stop offset="0.95" stop-color="#E9E9E9"/>
<stop offset="1" stop-color="#E9E9E9"/>
</linearGradient>
<linearGradient id="paint19_linear_2895_19" x1="0.0579588" y1="96.6289" x2="193.224" y2="96.6289" gradientUnits="userSpaceOnUse">
<stop stop-color="#264E8A"/>
<stop offset="0.95" stop-color="#E9E9E9"/>
<stop offset="1" stop-color="#E9E9E9"/>
</linearGradient>
<linearGradient id="paint20_linear_2895_19" x1="0.00425023" y1="96.6325" x2="193.276" y2="96.6325" gradientUnits="userSpaceOnUse">
<stop stop-color="#264E8A"/>
<stop offset="0.95" stop-color="#E9E9E9"/>
<stop offset="1" stop-color="#E9E9E9"/>
</linearGradient>
<clipPath id="clip0_2895_19">
<rect width="193.27" height="193.27" fill="white"/>
</clipPath>
</defs>
</svg>
