<svg width="28" height="32" viewBox="0 0 28 32" fill="none" xmlns="http://www.w3.org/2000/svg">
<path d="M4.61288 25.5456H26.4103C26.477 25.5456 26.5417 25.5361 26.6038 25.5213C26.6088 25.5213 26.6129 25.5221 26.6178 25.5221C27.0832 25.5221 27.4612 25.1445 27.4612 24.6788V0.843336C27.4613 0.377812 27.0832 0 26.6178 0H26.412H5.96166H4.61407C2.36935 0 0.543484 1.82629 0.543484 4.07037C0.543484 4.10047 0.549406 4.12904 0.552332 4.15809C0.549406 6.23107 0.523699 25.2792 0.549406 27.7833C0.547804 27.8322 0.541812 27.88 0.541812 27.9295C0.541812 30.0873 2.23141 31.8538 4.35664 31.9873C4.39928 31.9939 4.44108 32.0001 4.48532 32.0001H26.6178C27.0831 32.0001 27.4611 31.6225 27.4611 31.1567V27.9823C27.4611 27.5169 27.083 27.139 26.6178 27.139C26.1525 27.139 25.7744 27.517 25.7744 27.9823V30.3135H4.61288C3.33133 30.3135 2.28519 29.296 2.23378 28.0272C2.23503 28.0045 2.23914 27.9831 2.23872 27.9601C2.23789 27.923 2.23663 27.8654 2.2358 27.7888C2.30951 26.54 3.34596 25.5456 4.61288 25.5456ZM5.18793 4.07037C5.18793 3.60485 5.56574 3.22704 6.03126 3.22704C6.49679 3.22704 6.8746 3.60485 6.8746 4.07037V21.2008C6.8746 21.6661 6.49679 22.0441 6.03126 22.0441C5.56574 22.0441 5.18793 21.666 5.18793 21.2008V4.07037Z" fill="white"/>
</svg>
