<svg width="37" height="38" viewBox="0 0 37 38" fill="none" xmlns="http://www.w3.org/2000/svg">
<path d="M18.4997 3.58301C14.4109 3.58301 10.4896 5.20726 7.59844 8.09844C4.70726 10.9896 3.08301 14.9109 3.08301 18.9997C3.08301 23.0884 4.70726 27.0097 7.59844 29.9009C10.4896 32.7921 14.4109 34.4163 18.4997 34.4163C22.5884 34.4163 26.5097 32.7921 29.4009 29.9009C32.2921 27.0097 33.9163 23.0884 33.9163 18.9997C33.9163 14.9109 32.2921 10.9896 29.4009 8.09844C26.5097 5.20726 22.5884 3.58301 18.4997 3.58301Z" fill="#29B6F6"/>
<path d="M26.1695 12.0628L23.2819 26.8058C23.2819 26.8058 23.1578 27.4795 22.3222 27.4795C21.8782 27.4795 21.6493 27.2683 21.6493 27.2683L15.3948 22.0783L12.3345 20.5358L8.40715 19.4913C8.40715 19.4913 7.70801 19.2894 7.70801 18.7113C7.70801 18.2295 8.4272 17.9998 8.4272 17.9998L24.8583 11.4724C24.8583 11.4724 25.3601 11.2912 25.7262 11.292C25.9513 11.292 26.208 11.3883 26.208 11.6774C26.208 11.8701 26.1695 12.0628 26.1695 12.0628Z" fill="white"/>
<path d="M17.7293 24.014L15.0884 26.6148C15.0884 26.6148 14.9736 26.7035 14.8202 26.7073C14.767 26.7089 14.71 26.7004 14.6514 26.6742L15.3945 22.0762L17.7293 24.014Z" fill="#B0BEC5"/>
<path d="M23.0453 14.526C22.915 14.3564 22.6745 14.3256 22.5049 14.4543L12.333 20.5416C12.333 20.5416 13.9564 25.0833 14.2038 25.8696C14.452 26.6566 14.6509 26.6751 14.6509 26.6751L15.394 22.0771L22.9728 15.0656C23.1424 14.9369 23.174 14.6956 23.0453 14.526Z" fill="#CFD8DC"/>
</svg>
