<?xml version="1.0" encoding="utf-8"?>
<!-- Generator: Adobe Illustrator 26.4.1, SVG Export Plug-In . SVG Version: 6.00 Build 0)  -->
<svg version="1.1" id="Слой_1" xmlns="http://www.w3.org/2000/svg" xmlns:xlink="http://www.w3.org/1999/xlink" x="0px" y="0px"
	 viewBox="0 0 33.7 33.8" style="enable-background:new 0 0 33.7 33.8;" xml:space="preserve">
<style type="text/css">
	.st0{fill:#FFFFFF;}
	.st1{fill:#CFD8DC;}
	.st2{fill:#40C351;}
	.st3{fill-rule:evenodd;clip-rule:evenodd;fill:#FFFFFF;}
</style>
<path class="st0" d="M0.8,33l2.2-8.2C1.7,22.4,1,19.7,1,16.9C1,8.2,8.1,1.1,16.8,1.1C21,1.1,25,2.7,28,5.7c3,3,4.6,7,4.6,11.2
	c0,8.7-7.1,15.8-15.8,15.8h0c-2.6,0-5.2-0.7-7.6-1.9L0.8,33z"/>
<path class="st0" d="M0.8,33.4c-0.1,0-0.2,0-0.3-0.1c-0.1-0.1-0.1-0.3-0.1-0.4l2.2-8c-1.4-2.4-2.1-5.2-2.1-8c0-9,7.3-16.2,16.2-16.2
	c4.3,0,8.4,1.7,11.5,4.8c3.1,3.1,4.8,7.1,4.8,11.5c0,9-7.3,16.2-16.2,16.2c-2.7,0-5.3-0.7-7.6-1.9l-8.2,2.2
	C0.9,33.4,0.9,33.4,0.8,33.4z"/>
<path class="st1" d="M16.8,1.1C21,1.1,25,2.7,28,5.7c3,3,4.6,7,4.6,11.2c0,8.7-7.1,15.8-15.8,15.8h0c-2.6,0-5.2-0.7-7.6-1.9L0.8,33
	l2.2-8.2C1.7,22.4,1,19.7,1,16.9C1,8.2,8.1,1.1,16.8,1.1z M16.8,0.2C7.6,0.2,0.1,7.7,0.1,16.9c0,2.8,0.7,5.6,2.1,8L0,32.8
	c-0.1,0.3,0,0.6,0.2,0.8c0.2,0.2,0.4,0.2,0.6,0.2c0.1,0,0.1,0,0.2,0l8.1-2.1c2.4,1.2,5,1.9,7.7,1.9c9.2,0,16.7-7.5,16.7-16.7
	c0-4.4-1.7-8.6-4.9-11.8C25.4,2,21.2,0.2,16.8,0.2z"/>
<path class="st2" d="M26.1,7.6c-2.5-2.5-5.8-3.9-9.3-3.9C9.5,3.7,3.6,9.6,3.6,16.9c0,2.5,0.7,4.9,2,7L6,24.4l-1.3,4.9l5-1.3l0.5,0.3
	c2,1.2,4.3,1.8,6.7,1.8h0c7.2,0,13.1-5.9,13.1-13.1C29.9,13.4,28.6,10.1,26.1,7.6z"/>
<path class="st3" d="M12.8,10.3c-0.3-0.7-0.6-0.7-0.9-0.7c-0.2,0-0.5,0-0.8,0c-0.3,0-0.7,0.1-1.1,0.5c-0.4,0.4-1.4,1.4-1.4,3.3
	s1.4,3.8,1.6,4.1c0.2,0.3,2.7,4.4,6.8,6c3.3,1.3,4,1.1,4.7,1c0.7-0.1,2.3-1,2.7-1.9c0.3-0.9,0.3-1.7,0.2-1.9
	c-0.1-0.2-0.4-0.3-0.8-0.5c-0.4-0.2-2.3-1.2-2.7-1.3c-0.4-0.1-0.6-0.2-0.9,0.2c-0.3,0.4-1,1.3-1.3,1.5c-0.2,0.3-0.5,0.3-0.9,0.1
	c-0.4-0.2-1.7-0.6-3.2-2c-1.2-1-2-2.3-2.2-2.7c-0.2-0.4,0-0.6,0.2-0.8c0.2-0.2,0.4-0.5,0.6-0.7c0.2-0.2,0.3-0.4,0.4-0.7
	c0.1-0.3,0.1-0.5,0-0.7C14,13,13.2,11.1,12.8,10.3z"/>
</svg>
